<svg width="125" height="78" viewBox="0 0 125 78" fill="none" xmlns="http://www.w3.org/2000/svg">
<rect x="11.5" y="0.5" width="100" height="49" stroke="#ACA1A1"/>
<rect y="6" width="125" height="72" fill="#F5EEE9"/>
<path d="M23.1301 25.08C23.1301 24.1413 23.2915 23.21 23.6141 22.286C23.9515 21.362 24.4355 20.526 25.0661 19.778C25.6968 19.03 26.4668 18.4287 27.3761 17.974C28.3001 17.5193 29.3488 17.292 30.5221 17.292C31.9155 17.292 33.1035 17.6147 34.0861 18.26C35.0688 18.8907 35.8021 19.7047 36.2861 20.702L35.3621 21.23C34.9955 20.5113 34.5408 19.9393 33.9981 19.514C33.4701 19.0887 32.8981 18.788 32.2821 18.612C31.6661 18.4213 31.0501 18.326 30.4341 18.326C29.4515 18.326 28.5715 18.524 27.7941 18.92C27.0315 19.316 26.3861 19.844 25.8581 20.504C25.3301 21.164 24.9268 21.8973 24.6481 22.704C24.3841 23.5107 24.2521 24.3247 24.2521 25.146C24.2521 26.07 24.4135 26.95 24.7361 27.786C25.0588 28.6073 25.4988 29.348 26.0561 30.008C26.6281 30.6533 27.2881 31.1667 28.0361 31.548C28.7988 31.9147 29.6201 32.098 30.5001 32.098C31.1308 32.098 31.7688 31.9953 32.4141 31.79C33.0741 31.57 33.6901 31.24 34.2621 30.8C34.8341 30.3453 35.2961 29.7587 35.6481 29.04L36.6161 29.502C36.2641 30.2793 35.7508 30.9393 35.0761 31.482C34.4161 32.0247 33.6755 32.4353 32.8541 32.714C32.0328 32.9927 31.2188 33.132 30.4121 33.132C29.3561 33.132 28.3808 32.9047 27.4861 32.45C26.5915 31.9807 25.8215 31.3647 25.1761 30.602C24.5308 29.8247 24.0248 28.9593 23.6581 28.006C23.3061 27.038 23.1301 26.0627 23.1301 25.08Z" fill="#524B4B"/>
<path d="M43.8636 33.22C42.7929 33.22 41.8323 32.9487 40.9816 32.406C40.1456 31.8633 39.4856 31.1447 39.0016 30.25C38.5176 29.3553 38.2756 28.3727 38.2756 27.302C38.2756 26.4953 38.4149 25.74 38.6936 25.036C38.9723 24.3173 39.3683 23.6867 39.8816 23.144C40.3949 22.5867 40.9889 22.154 41.6636 21.846C42.3383 21.5233 43.0716 21.362 43.8636 21.362C44.6556 21.362 45.3889 21.5233 46.0636 21.846C46.7383 22.154 47.3249 22.5867 47.8236 23.144C48.3369 23.6867 48.7329 24.3173 49.0116 25.036C49.3049 25.74 49.4516 26.4953 49.4516 27.302C49.4516 28.3727 49.2023 29.3553 48.7036 30.25C48.2196 31.1447 47.5523 31.8633 46.7016 32.406C45.8656 32.9487 44.9196 33.22 43.8636 33.22ZM39.3756 27.346C39.3756 28.2407 39.5736 29.062 39.9696 29.81C40.3803 30.5433 40.9229 31.13 41.5976 31.57C42.2723 32.01 43.0203 32.23 43.8416 32.23C44.6629 32.23 45.4109 32.01 46.0856 31.57C46.7749 31.1153 47.3176 30.514 47.7136 29.766C48.1243 29.018 48.3296 28.1893 48.3296 27.28C48.3296 26.3853 48.1243 25.564 47.7136 24.816C47.3176 24.068 46.7749 23.474 46.0856 23.034C45.4109 22.5793 44.6703 22.352 43.8636 22.352C43.0423 22.352 42.2943 22.5793 41.6196 23.034C40.9449 23.4887 40.4023 24.0973 39.9916 24.86C39.5809 25.608 39.3756 26.4367 39.3756 27.346Z" fill="#524B4B"/>
<path d="M61.4371 33H60.3371V26.62C60.3371 25.1533 60.1245 24.0827 59.6991 23.408C59.2738 22.7187 58.6138 22.374 57.7191 22.374C57.0738 22.374 56.4431 22.528 55.8271 22.836C55.2111 23.144 54.6685 23.5693 54.1991 24.112C53.7298 24.64 53.3925 25.2413 53.1871 25.916V33H52.0871V21.56H53.1211V24.288C53.5758 23.4227 54.2505 22.7187 55.1451 22.176C56.0545 21.6333 57.0151 21.362 58.0271 21.362C59.2738 21.362 60.1538 21.802 60.6671 22.682C61.1805 23.562 61.4371 24.8087 61.4371 26.422V33Z" fill="#524B4B"/>
<path d="M69.7595 32.45C69.6568 32.5087 69.3855 32.6407 68.9455 32.846C68.5055 33.0367 67.9775 33.132 67.3615 33.132C66.7602 33.132 66.2322 32.956 65.7775 32.604C65.3375 32.252 65.1175 31.746 65.1175 31.086V22.462H63.5115V21.56H65.1175V17.644H66.2175V21.56H68.8795V22.462H66.2175V30.822C66.2468 31.2473 66.4008 31.57 66.6795 31.79C66.9582 31.9953 67.2808 32.098 67.6475 32.098C68.1022 32.098 68.4982 32.0247 68.8355 31.878C69.1728 31.7167 69.3708 31.614 69.4295 31.57L69.7595 32.45Z" fill="#524B4B"/>
<path d="M70.7564 29.7C70.7564 29.0253 70.9544 28.4313 71.3504 27.918C71.761 27.4047 72.3257 27.0087 73.0444 26.73C73.7777 26.4367 74.6137 26.29 75.5524 26.29C76.139 26.29 76.7477 26.3413 77.3784 26.444C78.0237 26.5467 78.5884 26.686 79.0724 26.862V25.784C79.0724 24.728 78.7644 23.8847 78.1484 23.254C77.5324 22.6233 76.6964 22.308 75.6404 22.308C75.0684 22.308 74.4744 22.4253 73.8584 22.66C73.2424 22.8947 72.6117 23.232 71.9664 23.672L71.5044 22.88C73.0004 21.868 74.4157 21.362 75.7504 21.362C77.0997 21.362 78.1704 21.7653 78.9624 22.572C79.769 23.3787 80.1724 24.4787 80.1724 25.872V31.548C80.1724 31.9 80.3337 32.0833 80.6564 32.098V33C80.3777 33.0293 80.1944 33.0367 80.1064 33.022C79.8277 32.9927 79.6077 32.8753 79.4464 32.67C79.2997 32.4647 79.219 32.252 79.2044 32.032V31.13C78.6764 31.79 77.9944 32.3033 77.1584 32.67C76.337 33.0367 75.4717 33.22 74.5624 33.22C73.8437 33.22 73.191 33.066 72.6044 32.758C72.0324 32.4353 71.5777 32.01 71.2404 31.482C70.9177 30.954 70.7564 30.36 70.7564 29.7ZM78.6324 30.646C78.9257 30.2793 79.0724 29.9347 79.0724 29.612V27.72C78.0164 27.3093 76.8797 27.104 75.6624 27.104C74.5037 27.104 73.5724 27.3387 72.8684 27.808C72.1644 28.2627 71.8124 28.8713 71.8124 29.634C71.8124 30.118 71.937 30.5653 72.1864 30.976C72.4357 31.3867 72.7804 31.7167 73.2204 31.966C73.675 32.2153 74.1957 32.34 74.7824 32.34C75.6037 32.34 76.359 32.186 77.0484 31.878C77.7377 31.5553 78.2657 31.1447 78.6324 30.646Z" fill="#524B4B"/>
<path d="M88.3808 33.22C87.3101 33.22 86.3494 32.9487 85.4988 32.406C84.6481 31.8633 83.9734 31.1373 83.4748 30.228C82.9761 29.3187 82.7268 28.3213 82.7268 27.236C82.7268 26.1507 82.9688 25.168 83.4528 24.288C83.9368 23.3933 84.6041 22.682 85.4548 22.154C86.3054 21.626 87.2734 21.362 88.3588 21.362C89.4001 21.362 90.3168 21.604 91.1088 22.088C91.9008 22.5573 92.4948 23.2027 92.8908 24.024L91.8128 24.376C91.4754 23.7453 90.9914 23.254 90.3608 22.902C89.7448 22.5353 89.0628 22.352 88.3148 22.352C87.4788 22.352 86.7234 22.572 86.0488 23.012C85.3741 23.4373 84.8314 24.0167 84.4208 24.75C84.0248 25.4833 83.8268 26.312 83.8268 27.236C83.8268 28.16 84.0321 29.0033 84.4428 29.766C84.8534 30.514 85.3961 31.1153 86.0708 31.57C86.7601 32.01 87.5154 32.23 88.3368 32.23C88.8648 32.23 89.3781 32.1347 89.8768 31.944C90.3901 31.7387 90.8301 31.4747 91.1968 31.152C91.5781 30.8293 91.8274 30.4847 91.9448 30.118L93.0228 30.426C92.8321 30.9687 92.5021 31.4527 92.0328 31.878C91.5781 32.2887 91.0354 32.6187 90.4048 32.868C89.7741 33.1027 89.0994 33.22 88.3808 33.22Z" fill="#524B4B"/>
<path d="M100.611 32.45C100.508 32.5087 100.237 32.6407 99.7971 32.846C99.3571 33.0367 98.8291 33.132 98.2131 33.132C97.6117 33.132 97.0837 32.956 96.6291 32.604C96.1891 32.252 95.9691 31.746 95.9691 31.086V22.462H94.3631V21.56H95.9691V17.644H97.0691V21.56H99.7311V22.462H97.0691V30.822C97.0984 31.2473 97.2524 31.57 97.5311 31.79C97.8097 31.9953 98.1324 32.098 98.4991 32.098C98.9537 32.098 99.3497 32.0247 99.6871 31.878C100.024 31.7167 100.222 31.614 100.281 31.57L100.611 32.45Z" fill="#524B4B"/>
<path d="M18.6107 57.1C18.2307 57.1 17.9007 56.9967 17.6207 56.79C17.3474 56.5833 17.1341 56.3133 16.9807 55.98C16.8341 55.6467 16.7607 55.29 16.7607 54.91C16.7607 54.5033 16.8407 54.11 17.0007 53.73C17.1607 53.35 17.3774 53.01 17.6507 52.71C17.9241 52.4033 18.2341 52.1633 18.5807 51.99C18.9274 51.81 19.2874 51.72 19.6607 51.72C20.1141 51.72 20.4841 51.8467 20.7707 52.1C21.0574 52.3467 21.2607 52.64 21.3807 52.98L21.6307 51.8H21.9807L20.9907 56.43C20.9774 56.4767 20.9707 56.5167 20.9707 56.55C20.9707 56.6367 21.0174 56.68 21.1107 56.68L21.0407 57C21.0141 57 20.9874 57 20.9607 57C20.9407 57.0067 20.9207 57.0067 20.9007 57C20.7207 56.9667 20.6307 56.8633 20.6307 56.69C20.6307 56.6633 20.6341 56.6333 20.6407 56.6C20.6474 56.56 20.6607 56.4933 20.6807 56.4C20.7007 56.3 20.7307 56.1467 20.7707 55.94C20.4974 56.2867 20.1641 56.5667 19.7707 56.78C19.3841 56.9933 18.9974 57.1 18.6107 57.1ZM18.7107 56.78C18.9107 56.78 19.1241 56.74 19.3507 56.66C19.5774 56.58 19.7974 56.47 20.0107 56.33C20.2241 56.19 20.4074 56.03 20.5607 55.85C20.7207 55.67 20.8307 55.48 20.8907 55.28L21.2707 53.49C21.2374 53.23 21.1474 52.99 21.0007 52.77C20.8541 52.55 20.6641 52.3733 20.4307 52.24C20.2041 52.1067 19.9474 52.04 19.6607 52.04C19.3274 52.04 19.0074 52.1233 18.7007 52.29C18.3941 52.4567 18.1207 52.68 17.8807 52.96C17.6474 53.2333 17.4607 53.5367 17.3207 53.87C17.1807 54.2033 17.1107 54.54 17.1107 54.88C17.1107 55.22 17.1774 55.5367 17.3107 55.83C17.4507 56.1167 17.6407 56.3467 17.8807 56.52C18.1207 56.6933 18.3974 56.78 18.7107 56.78Z" fill="#524B4B"/>
<path d="M23.5704 51.8H23.8904L23.6204 53.1C23.8137 52.8267 24.0437 52.5867 24.3104 52.38C24.577 52.1733 24.8604 52.0133 25.1604 51.9C25.467 51.78 25.767 51.72 26.0604 51.72C26.7937 51.72 27.1604 52.14 27.1604 52.98C27.1604 53.1333 27.147 53.3 27.1204 53.48C27.1004 53.66 27.0704 53.8533 27.0304 54.06L26.4104 57H26.0704L26.6804 54.1C26.7204 53.9067 26.7504 53.7267 26.7704 53.56C26.7904 53.3867 26.8004 53.2333 26.8004 53.1C26.8004 52.3933 26.507 52.04 25.9204 52.04C25.627 52.04 25.3237 52.1167 25.0104 52.27C24.697 52.4167 24.4037 52.62 24.1304 52.88C23.8637 53.1333 23.6537 53.4233 23.5004 53.75L22.8104 57H22.4704L23.5704 51.8Z" fill="#524B4B"/>
<path d="M28.2007 56.39C28.2007 56.3633 28.2007 56.3333 28.2007 56.3C28.2074 56.2667 28.2141 56.23 28.2207 56.19L29.0907 52.1H28.3907L28.4507 51.8H29.1607L29.5407 50.01H29.8807L29.5007 51.8H30.6707L30.6007 52.1H29.4307L28.6507 55.73C28.5907 56.0167 28.5607 56.1867 28.5607 56.24C28.5607 56.4 28.6107 56.5233 28.7107 56.61C28.8174 56.69 28.9441 56.73 29.0907 56.73C29.2974 56.73 29.4807 56.6933 29.6407 56.62C29.8074 56.5467 29.9041 56.5 29.9307 56.48L29.9907 56.76C29.9707 56.7733 29.9107 56.8033 29.8107 56.85C29.7174 56.8967 29.5941 56.9433 29.4407 56.99C29.2941 57.03 29.1341 57.05 28.9607 57.05C28.7407 57.05 28.5574 56.9933 28.4107 56.88C28.2707 56.76 28.2007 56.5967 28.2007 56.39Z" fill="#524B4B"/>
<path d="M36.1104 56.91C36.3238 56.91 36.5271 56.8233 36.7204 56.65C36.9138 56.4767 37.0838 56.25 37.2304 55.97C37.3838 55.6833 37.5038 55.37 37.5904 55.03C37.6771 54.6833 37.7204 54.34 37.7204 54C37.7204 53.46 37.6104 52.98 37.3904 52.56C37.1704 52.14 36.8671 51.81 36.4804 51.57C36.0938 51.33 35.6404 51.21 35.1204 51.21C34.6204 51.21 34.1338 51.3233 33.6604 51.55C33.1871 51.7767 32.7604 52.0867 32.3804 52.48C32.0071 52.8733 31.7071 53.3233 31.4804 53.83C31.2604 54.33 31.1504 54.8567 31.1504 55.41C31.1504 55.9433 31.2571 56.4233 31.4704 56.85C31.6904 57.27 31.9938 57.6033 32.3804 57.85C32.7738 58.0967 33.2238 58.22 33.7304 58.22C34.2171 58.22 34.7138 58.0933 35.2204 57.84L35.2804 58.06C34.7204 58.3267 34.1704 58.46 33.6304 58.46C33.1038 58.46 32.6338 58.3267 32.2204 58.06C31.8138 57.7933 31.4938 57.4333 31.2604 56.98C31.0271 56.52 30.9104 56 30.9104 55.42C30.9104 54.9467 30.9871 54.49 31.1404 54.05C31.3004 53.61 31.5204 53.2033 31.8004 52.83C32.0804 52.4567 32.4004 52.1333 32.7604 51.86C33.1204 51.58 33.5071 51.3633 33.9204 51.21C34.3338 51.05 34.7504 50.97 35.1704 50.97C35.7104 50.97 36.1904 51.1 36.6104 51.36C37.0304 51.6133 37.3604 51.9633 37.6004 52.41C37.8404 52.8567 37.9604 53.37 37.9604 53.95C37.9604 54.31 37.9104 54.68 37.8104 55.06C37.7171 55.4333 37.5838 55.78 37.4104 56.1C37.2371 56.4133 37.0304 56.67 36.7904 56.87C36.5504 57.0633 36.2871 57.16 36.0004 57.16C35.8204 57.16 35.6838 57.11 35.5904 57.01C35.5038 56.9167 35.4604 56.7633 35.4604 56.55C35.4604 56.4967 35.4604 56.44 35.4604 56.38C35.4671 56.3133 35.4771 56.2467 35.4904 56.18C35.2704 56.4 35.0104 56.5767 34.7104 56.71C34.4171 56.8433 34.1304 56.91 33.8504 56.91C33.4104 56.91 33.0571 56.7467 32.7904 56.42C32.5304 56.0867 32.4004 55.6667 32.4004 55.16C32.4004 54.8067 32.4638 54.47 32.5904 54.15C32.7171 53.83 32.8904 53.5467 33.1104 53.3C33.3371 53.0467 33.5904 52.85 33.8704 52.71C34.1571 52.5633 34.4604 52.49 34.7804 52.49C35.0938 52.49 35.3638 52.57 35.5904 52.73C35.8171 52.8833 35.9838 53.1 36.0904 53.38L36.2704 52.5H36.5504L35.8004 56.01C35.7738 56.1367 35.7538 56.24 35.7404 56.32C35.7338 56.3933 35.7304 56.45 35.7304 56.49C35.7304 56.77 35.8571 56.91 36.1104 56.91ZM33.9504 56.64C34.1704 56.64 34.3938 56.5933 34.6204 56.5C34.8471 56.4 35.0504 56.27 35.2304 56.11C35.4171 55.9433 35.5504 55.76 35.6304 55.56L36.0004 53.73C35.9071 53.4167 35.7504 53.1767 35.5304 53.01C35.3104 52.8433 35.0504 52.76 34.7504 52.76C34.4838 52.76 34.2271 52.8233 33.9804 52.95C33.7338 53.0767 33.5138 53.25 33.3204 53.47C33.1271 53.69 32.9704 53.94 32.8504 54.22C32.7371 54.5 32.6804 54.7967 32.6804 55.11C32.6804 55.5567 32.7971 55.9233 33.0304 56.21C33.2638 56.4967 33.5704 56.64 33.9504 56.64Z" fill="#524B4B"/>
<path d="M39.8596 51.8H40.1696L39.9396 52.88C40.2196 52.54 40.553 52.2633 40.9396 52.05C41.333 51.83 41.7163 51.72 42.0896 51.72C42.483 51.72 42.8163 51.8267 43.0896 52.04C43.3696 52.2467 43.583 52.52 43.7296 52.86C43.8763 53.1933 43.9496 53.55 43.9496 53.93C43.9496 54.3233 43.873 54.71 43.7196 55.09C43.5663 55.4633 43.353 55.8033 43.0796 56.11C42.813 56.41 42.503 56.65 42.1496 56.83C41.803 57.01 41.433 57.1 41.0396 57.1C40.6063 57.1 40.2463 56.9767 39.9596 56.73C39.673 56.4833 39.4663 56.1867 39.3396 55.84L38.6396 59.13H38.2996L39.8596 51.8ZM41.0496 56.78C41.3963 56.78 41.723 56.7 42.0296 56.54C42.3363 56.3733 42.6063 56.1533 42.8396 55.88C43.0796 55.6 43.2663 55.2967 43.3996 54.97C43.533 54.6367 43.5996 54.3033 43.5996 53.97C43.5996 53.6233 43.533 53.3033 43.3996 53.01C43.2663 52.7167 43.0763 52.4833 42.8296 52.31C42.5896 52.13 42.303 52.04 41.9696 52.04C41.7896 52.04 41.5863 52.08 41.3596 52.16C41.1396 52.24 40.923 52.35 40.7096 52.49C40.4963 52.63 40.3096 52.79 40.1496 52.97C39.9896 53.15 39.8796 53.34 39.8196 53.54L39.4396 55.33C39.5196 55.7367 39.703 56.08 39.9896 56.36C40.283 56.64 40.6363 56.78 41.0496 56.78Z" fill="#524B4B"/>
<path d="M46.63 57.1C46.1966 57.1 45.8366 57.0033 45.55 56.81C45.27 56.61 45.0566 56.3467 44.91 56.02C44.77 55.6933 44.7 55.3333 44.7 54.94C44.7 54.4933 44.78 54.0767 44.94 53.69C45.1066 53.2967 45.33 52.9533 45.61 52.66C45.8966 52.3667 46.2166 52.1367 46.57 51.97C46.9233 51.8033 47.2933 51.72 47.68 51.72C48.1066 51.72 48.4633 51.82 48.75 52.02C49.0366 52.2133 49.25 52.4767 49.39 52.81C49.53 53.1367 49.6 53.5 49.6 53.9C49.6 54.34 49.52 54.7533 49.36 55.14C49.2 55.5267 48.98 55.8667 48.7 56.16C48.4266 56.4533 48.11 56.6833 47.75 56.85C47.3966 57.0167 47.0233 57.1 46.63 57.1ZM46.69 56.78C47.0166 56.78 47.3333 56.71 47.64 56.57C47.9466 56.4233 48.22 56.2233 48.46 55.97C48.7066 55.71 48.9 55.41 49.04 55.07C49.1866 54.73 49.26 54.36 49.26 53.96C49.26 53.6067 49.1966 53.2867 49.07 53C48.95 52.7067 48.7666 52.4733 48.52 52.3C48.28 52.1267 47.98 52.04 47.62 52.04C47.2933 52.04 46.9766 52.1133 46.67 52.26C46.3633 52.4 46.0866 52.6 45.84 52.86C45.6 53.12 45.4066 53.4233 45.26 53.77C45.12 54.1167 45.05 54.49 45.05 54.89C45.05 55.2433 45.11 55.5633 45.23 55.85C45.35 56.1367 45.53 56.3633 45.77 56.53C46.0166 56.6967 46.3233 56.78 46.69 56.78Z" fill="#524B4B"/>
<path d="M51.7743 49.7H52.1143L51.9343 50.54H51.5943L51.7743 49.7ZM51.3243 51.8H51.6643L50.5643 57H50.2243L51.3243 51.8Z" fill="#524B4B"/>
<path d="M53.2383 51.8H53.5583L53.2883 53.1C53.4817 52.8267 53.7117 52.5867 53.9783 52.38C54.245 52.1733 54.5283 52.0133 54.8283 51.9C55.135 51.78 55.435 51.72 55.7283 51.72C56.4617 51.72 56.8283 52.14 56.8283 52.98C56.8283 53.1333 56.815 53.3 56.7883 53.48C56.7683 53.66 56.7383 53.8533 56.6983 54.06L56.0783 57H55.7383L56.3483 54.1C56.3883 53.9067 56.4183 53.7267 56.4383 53.56C56.4583 53.3867 56.4683 53.2333 56.4683 53.1C56.4683 52.3933 56.175 52.04 55.5883 52.04C55.295 52.04 54.9917 52.1167 54.6783 52.27C54.365 52.4167 54.0717 52.62 53.7983 52.88C53.5317 53.1333 53.3217 53.4233 53.1683 53.75L52.4783 57H52.1383L53.2383 51.8Z" fill="#524B4B"/>
<path d="M57.8687 56.39C57.8687 56.3633 57.8687 56.3333 57.8687 56.3C57.8754 56.2667 57.882 56.23 57.8887 56.19L58.7587 52.1H58.0587L58.1187 51.8H58.8287L59.2087 50.01H59.5487L59.1687 51.8H60.3387L60.2687 52.1H59.0987L58.3187 55.73C58.2587 56.0167 58.2287 56.1867 58.2287 56.24C58.2287 56.4 58.2787 56.5233 58.3787 56.61C58.4854 56.69 58.612 56.73 58.7587 56.73C58.9654 56.73 59.1487 56.6933 59.3087 56.62C59.4754 56.5467 59.572 56.5 59.5987 56.48L59.6587 56.76C59.6387 56.7733 59.5787 56.8033 59.4787 56.85C59.3854 56.8967 59.262 56.9433 59.1087 56.99C58.962 57.03 58.802 57.05 58.6287 57.05C58.4087 57.05 58.2254 56.9933 58.0787 56.88C57.9387 56.76 57.8687 56.5967 57.8687 56.39Z" fill="#524B4B"/>
<path d="M61.5684 51.8H61.8884L61.6184 53.1C61.8117 52.8267 62.0417 52.5867 62.3084 52.38C62.5751 52.1733 62.8584 52.0133 63.1584 51.9C63.4651 51.78 63.7651 51.72 64.0584 51.72C64.7917 51.72 65.1584 52.14 65.1584 52.98C65.1584 53.1333 65.1451 53.3 65.1184 53.48C65.0984 53.66 65.0684 53.8533 65.0284 54.06L64.4084 57H64.0684L64.6784 54.1C64.7184 53.9067 64.7484 53.7267 64.7684 53.56C64.7884 53.3867 64.7984 53.2333 64.7984 53.1C64.7984 52.3933 64.5051 52.04 63.9184 52.04C63.6251 52.04 63.3217 52.1167 63.0084 52.27C62.6951 52.4167 62.4017 52.62 62.1284 52.88C61.8617 53.1333 61.6517 53.4233 61.4984 53.75L60.8084 57H60.4684L61.5684 51.8Z" fill="#524B4B"/>
<path d="M67.9874 57.1C67.5541 57.1 67.194 57.0033 66.9074 56.81C66.6274 56.61 66.4141 56.3467 66.2674 56.02C66.1274 55.6933 66.0574 55.3333 66.0574 54.94C66.0574 54.4933 66.1374 54.0767 66.2974 53.69C66.464 53.2967 66.6874 52.9533 66.9674 52.66C67.2541 52.3667 67.5741 52.1367 67.9274 51.97C68.2807 51.8033 68.6507 51.72 69.0374 51.72C69.4641 51.72 69.8207 51.82 70.1074 52.02C70.3941 52.2133 70.6074 52.4767 70.7474 52.81C70.8874 53.1367 70.9574 53.5 70.9574 53.9C70.9574 54.34 70.8774 54.7533 70.7174 55.14C70.5574 55.5267 70.3374 55.8667 70.0574 56.16C69.7841 56.4533 69.4674 56.6833 69.1074 56.85C68.7541 57.0167 68.3807 57.1 67.9874 57.1ZM68.0474 56.78C68.374 56.78 68.6907 56.71 68.9974 56.57C69.304 56.4233 69.5774 56.2233 69.8174 55.97C70.064 55.71 70.2574 55.41 70.3974 55.07C70.5441 54.73 70.6174 54.36 70.6174 53.96C70.6174 53.6067 70.5541 53.2867 70.4274 53C70.3074 52.7067 70.1241 52.4733 69.8774 52.3C69.6374 52.1267 69.3374 52.04 68.9774 52.04C68.6507 52.04 68.334 52.1133 68.0274 52.26C67.7207 52.4 67.4441 52.6 67.1974 52.86C66.9574 53.12 66.764 53.4233 66.6174 53.77C66.4774 54.1167 66.4074 54.49 66.4074 54.89C66.4074 55.2433 66.4674 55.5633 66.5874 55.85C66.7074 56.1367 66.8874 56.3633 67.1274 56.53C67.3741 56.6967 67.6807 56.78 68.0474 56.78Z" fill="#524B4B"/>
<path d="M72.6817 51.8H73.0117L72.7317 53.12C72.9983 52.72 73.305 52.41 73.6517 52.19C73.9983 51.9633 74.3483 51.8367 74.7017 51.81C74.7417 51.8033 74.7783 51.8 74.8117 51.8C74.845 51.8 74.8783 51.8033 74.9117 51.81L74.8417 52.12C74.3817 52.14 73.9517 52.2933 73.5517 52.58C73.1583 52.86 72.845 53.2433 72.6117 53.73L71.9217 57H71.5817L72.6817 51.8Z" fill="#524B4B"/>
<path d="M75.1636 56.39C75.1636 56.3633 75.1636 56.3333 75.1636 56.3C75.1703 56.2667 75.177 56.23 75.1836 56.19L76.0536 52.1H75.3536L75.4136 51.8H76.1236L76.5036 50.01H76.8436L76.4636 51.8H77.6336L77.5636 52.1H76.3936L75.6136 55.73C75.5536 56.0167 75.5236 56.1867 75.5236 56.24C75.5236 56.4 75.5736 56.5233 75.6736 56.61C75.7803 56.69 75.907 56.73 76.0536 56.73C76.2603 56.73 76.4436 56.6933 76.6036 56.62C76.7703 56.5467 76.867 56.5 76.8936 56.48L76.9536 56.76C76.9336 56.7733 76.8736 56.8033 76.7736 56.85C76.6803 56.8967 76.557 56.9433 76.4036 56.99C76.257 57.03 76.097 57.05 75.9236 57.05C75.7036 57.05 75.5203 56.9933 75.3736 56.88C75.2336 56.76 75.1636 56.5967 75.1636 56.39Z" fill="#524B4B"/>
<path d="M79.3133 49.7H79.6533L78.9333 53.1C79.22 52.68 79.5733 52.3467 79.9933 52.1C80.4133 51.8467 80.8333 51.72 81.2533 51.72C81.6533 51.72 81.95 51.84 82.1433 52.08C82.3367 52.3133 82.4333 52.65 82.4333 53.09C82.4333 53.3833 82.3967 53.7067 82.3233 54.06L81.7033 57H81.3633L81.9733 54.1C82.0067 53.9333 82.0333 53.7767 82.0533 53.63C82.0733 53.4767 82.0833 53.3367 82.0833 53.21C82.0833 52.43 81.76 52.04 81.1133 52.04C80.8267 52.04 80.5333 52.1167 80.2333 52.27C79.9333 52.4167 79.6533 52.62 79.3933 52.88C79.14 53.1333 78.94 53.4233 78.7933 53.75L78.1033 57H77.7633L79.3133 49.7Z" fill="#524B4B"/>
<path d="M83.1323 57L83.2923 56.26H83.6023L83.4423 57H83.1323Z" fill="#524B4B"/>
<path d="M86.4835 57.1C86.0968 57.1 85.7601 57.0033 85.4735 56.81C85.1868 56.61 84.9635 56.3433 84.8035 56.01C84.6435 55.6767 84.5635 55.3067 84.5635 54.9C84.5635 54.4733 84.6435 54.07 84.8035 53.69C84.9701 53.3033 85.1968 52.9633 85.4835 52.67C85.7701 52.3767 86.0935 52.1467 86.4535 51.98C86.8201 51.8067 87.2035 51.72 87.6035 51.72C88.0368 51.72 88.3968 51.8267 88.6835 52.04C88.9768 52.2467 89.1701 52.5333 89.2635 52.9L88.9035 53.02C88.8168 52.7133 88.6568 52.4733 88.4235 52.3C88.1968 52.1267 87.9201 52.04 87.5935 52.04C87.2535 52.04 86.9235 52.1133 86.6035 52.26C86.2835 52.4067 85.9968 52.61 85.7435 52.87C85.4901 53.13 85.2868 53.43 85.1335 53.77C84.9868 54.1033 84.9135 54.46 84.9135 54.84C84.9135 55.2 84.9801 55.53 85.1135 55.83C85.2468 56.1233 85.4335 56.3567 85.6735 56.53C85.9135 56.6967 86.1935 56.78 86.5135 56.78C86.7535 56.78 87.0001 56.7333 87.2535 56.64C87.5135 56.54 87.7435 56.4133 87.9435 56.26C88.1435 56.1 88.2868 55.93 88.3735 55.75L88.6935 55.85C88.5668 56.09 88.3835 56.3033 88.1435 56.49C87.9101 56.6767 87.6468 56.8267 87.3535 56.94C87.0601 57.0467 86.7701 57.1 86.4835 57.1Z" fill="#524B4B"/>
<path d="M91.6202 57.1C91.1869 57.1 90.8269 57.0033 90.5402 56.81C90.2602 56.61 90.0469 56.3467 89.9002 56.02C89.7602 55.6933 89.6902 55.3333 89.6902 54.94C89.6902 54.4933 89.7702 54.0767 89.9302 53.69C90.0969 53.2967 90.3202 52.9533 90.6002 52.66C90.8869 52.3667 91.2069 52.1367 91.5602 51.97C91.9135 51.8033 92.2835 51.72 92.6702 51.72C93.0969 51.72 93.4535 51.82 93.7402 52.02C94.0269 52.2133 94.2402 52.4767 94.3802 52.81C94.5202 53.1367 94.5902 53.5 94.5902 53.9C94.5902 54.34 94.5102 54.7533 94.3502 55.14C94.1902 55.5267 93.9702 55.8667 93.6902 56.16C93.4169 56.4533 93.1002 56.6833 92.7402 56.85C92.3869 57.0167 92.0135 57.1 91.6202 57.1ZM91.6802 56.78C92.0069 56.78 92.3235 56.71 92.6302 56.57C92.9369 56.4233 93.2102 56.2233 93.4502 55.97C93.6969 55.71 93.8902 55.41 94.0302 55.07C94.1769 54.73 94.2502 54.36 94.2502 53.96C94.2502 53.6067 94.1869 53.2867 94.0602 53C93.9402 52.7067 93.7569 52.4733 93.5102 52.3C93.2702 52.1267 92.9702 52.04 92.6102 52.04C92.2835 52.04 91.9669 52.1133 91.6602 52.26C91.3535 52.4 91.0769 52.6 90.8302 52.86C90.5902 53.12 90.3969 53.4233 90.2502 53.77C90.1102 54.1167 90.0402 54.49 90.0402 54.89C90.0402 55.2433 90.1002 55.5633 90.2202 55.85C90.3402 56.1367 90.5202 56.3633 90.7602 56.53C91.0069 56.6967 91.3135 56.78 91.6802 56.78Z" fill="#524B4B"/>
<path d="M94.5678 57L94.7279 56.26H95.0378L94.8779 57H94.5678Z" fill="#524B4B"/>
<path d="M95.8778 56.72L100.478 52.09H96.9178L96.9778 51.8H100.938L100.878 52.08L96.2978 56.71H99.8778L99.8078 57H95.8178L95.8778 56.72Z" fill="#524B4B"/>
<path d="M102.82 57.1C102.44 57.1 102.11 56.9967 101.83 56.79C101.556 56.5833 101.343 56.3133 101.19 55.98C101.043 55.6467 100.97 55.29 100.97 54.91C100.97 54.5033 101.05 54.11 101.21 53.73C101.37 53.35 101.586 53.01 101.86 52.71C102.133 52.4033 102.443 52.1633 102.79 51.99C103.136 51.81 103.496 51.72 103.87 51.72C104.323 51.72 104.693 51.8467 104.98 52.1C105.266 52.3467 105.47 52.64 105.59 52.98L105.84 51.8H106.19L105.2 56.43C105.186 56.4767 105.18 56.5167 105.18 56.55C105.18 56.6367 105.226 56.68 105.32 56.68L105.25 57C105.223 57 105.196 57 105.17 57C105.15 57.0067 105.13 57.0067 105.11 57C104.93 56.9667 104.84 56.8633 104.84 56.69C104.84 56.6633 104.843 56.6333 104.85 56.6C104.856 56.56 104.87 56.4933 104.89 56.4C104.91 56.3 104.94 56.1467 104.98 55.94C104.706 56.2867 104.373 56.5667 103.98 56.78C103.593 56.9933 103.206 57.1 102.82 57.1ZM102.92 56.78C103.12 56.78 103.333 56.74 103.56 56.66C103.786 56.58 104.006 56.47 104.22 56.33C104.433 56.19 104.616 56.03 104.77 55.85C104.93 55.67 105.04 55.48 105.1 55.28L105.48 53.49C105.446 53.23 105.356 52.99 105.21 52.77C105.063 52.55 104.873 52.3733 104.64 52.24C104.413 52.1067 104.156 52.04 103.87 52.04C103.536 52.04 103.216 52.1233 102.91 52.29C102.603 52.4567 102.33 52.68 102.09 52.96C101.856 53.2333 101.67 53.5367 101.53 53.87C101.39 54.2033 101.32 54.54 101.32 54.88C101.32 55.22 101.386 55.5367 101.52 55.83C101.66 56.1167 101.85 56.3467 102.09 56.52C102.33 56.6933 102.606 56.78 102.92 56.78Z" fill="#524B4B"/>
<path d="M33.8728 70.1C33.4995 70.1 33.1795 70.0033 32.9128 69.81C32.6461 69.61 32.4395 69.3367 32.2928 68.99C32.1461 68.6433 32.0728 68.2467 32.0728 67.8C32.0728 67.28 32.1561 66.7933 32.3228 66.34C32.4895 65.8867 32.7161 65.4867 33.0028 65.14C33.2961 64.7933 33.6261 64.5233 33.9928 64.33C34.3661 64.13 34.7561 64.03 35.1628 64.03C35.5361 64.03 35.8561 64.13 36.1228 64.33C36.3961 64.5233 36.6028 64.7933 36.7428 65.14C36.8895 65.4867 36.9628 65.8867 36.9628 66.34C36.9628 66.86 36.8795 67.3467 36.7128 67.8C36.5461 68.2533 36.3161 68.6533 36.0228 69C35.7361 69.3467 35.4061 69.6167 35.0328 69.81C34.6661 70.0033 34.2795 70.1 33.8728 70.1ZM33.9428 69.77C34.3028 69.77 34.6428 69.6833 34.9628 69.51C35.2895 69.3367 35.5761 69.0967 35.8228 68.79C36.0695 68.4767 36.2628 68.1133 36.4028 67.7C36.5495 67.2867 36.6228 66.84 36.6228 66.36C36.6228 65.7667 36.4861 65.2867 36.2128 64.92C35.9461 64.5467 35.5728 64.36 35.0928 64.36C34.7328 64.36 34.3895 64.45 34.0628 64.63C33.7428 64.8033 33.4595 65.0467 33.2128 65.36C32.9661 65.6667 32.7695 66.0267 32.6228 66.44C32.4828 66.8533 32.4128 67.3 32.4128 67.78C32.4128 68.3733 32.5461 68.8533 32.8128 69.22C33.0861 69.5867 33.4628 69.77 33.9428 69.77Z" fill="#524B4B"/>
<path d="M39.5917 70.07C39.1984 70.07 38.8617 69.9933 38.5817 69.84C38.3017 69.6867 38.0884 69.4833 37.9417 69.23C37.7951 68.97 37.7217 68.69 37.7217 68.39C37.7217 68.01 37.8217 67.67 38.0217 67.37C38.2217 67.07 38.4684 66.82 38.7617 66.62C39.0617 66.42 39.3584 66.2767 39.6517 66.19C39.3851 66.0833 39.1584 65.9167 38.9717 65.69C38.7917 65.4633 38.7017 65.1933 38.7017 64.88C38.7017 64.5667 38.7751 64.2867 38.9217 64.04C39.0684 63.7933 39.2617 63.5867 39.5017 63.42C39.7484 63.2467 40.0151 63.1167 40.3017 63.03C40.5884 62.9433 40.8717 62.9 41.1517 62.9C41.4451 62.9 41.7217 62.9567 41.9817 63.07C42.2417 63.1833 42.4517 63.3467 42.6117 63.56C42.7784 63.7733 42.8617 64.0333 42.8617 64.34C42.8617 64.6533 42.7817 64.93 42.6217 65.17C42.4684 65.41 42.2651 65.6167 42.0117 65.79C41.7651 65.9567 41.5051 66.09 41.2317 66.19C41.5584 66.31 41.8284 66.51 42.0417 66.79C42.2617 67.0633 42.3717 67.39 42.3717 67.77C42.3717 68.1167 42.2917 68.43 42.1317 68.71C41.9784 68.99 41.7684 69.2333 41.5017 69.44C41.2351 69.64 40.9351 69.7967 40.6017 69.91C40.2751 70.0167 39.9384 70.07 39.5917 70.07ZM40.4717 66.05C40.6851 66.05 40.9084 66.0133 41.1417 65.94C41.3817 65.8667 41.6051 65.76 41.8117 65.62C42.0184 65.4733 42.1851 65.3 42.3117 65.1C42.4451 64.8933 42.5117 64.66 42.5117 64.4C42.5117 64.1533 42.4451 63.9433 42.3117 63.77C42.1784 63.59 42.0017 63.4533 41.7817 63.36C41.5617 63.2667 41.3217 63.22 41.0617 63.22C40.7417 63.22 40.4251 63.2867 40.1117 63.42C39.8051 63.5533 39.5484 63.7433 39.3417 63.99C39.1417 64.2367 39.0417 64.5267 39.0417 64.86C39.0417 65.1133 39.1117 65.33 39.2517 65.51C39.3984 65.6833 39.5784 65.8167 39.7917 65.91C40.0117 66.0033 40.2384 66.05 40.4717 66.05ZM39.6917 69.77C39.9517 69.77 40.2184 69.7233 40.4917 69.63C40.7651 69.5367 41.0184 69.4033 41.2517 69.23C41.4851 69.0567 41.6717 68.85 41.8117 68.61C41.9584 68.3633 42.0317 68.09 42.0317 67.79C42.0317 67.4833 41.9517 67.2233 41.7917 67.01C41.6317 66.7967 41.4251 66.6333 41.1717 66.52C40.9251 66.4067 40.6684 66.35 40.4017 66.35C40.1417 66.35 39.8751 66.4 39.6017 66.5C39.3284 66.5933 39.0751 66.73 38.8417 66.91C38.6084 67.0833 38.4217 67.2933 38.2817 67.54C38.1417 67.78 38.0717 68.0467 38.0717 68.34C38.0717 68.6467 38.1484 68.9067 38.3017 69.12C38.4617 69.3333 38.6651 69.4967 38.9117 69.61C39.1651 69.7167 39.4251 69.77 39.6917 69.77Z" fill="#524B4B"/>
<path d="M42.9772 70C43.0105 69.8467 43.0672 69.6567 43.1472 69.43C43.2272 69.2033 43.3439 68.9667 43.4972 68.72C43.6572 68.4667 43.8705 68.2233 44.1372 67.99C44.4039 67.75 44.7372 67.5433 45.1372 67.37C45.6239 67.17 46.0239 66.9867 46.3372 66.82C46.6572 66.6533 46.8939 66.47 47.0472 66.27C47.2005 66.07 47.2772 65.8233 47.2772 65.53C47.2772 65.3633 47.2339 65.2033 47.1472 65.05C47.0672 64.89 46.9372 64.76 46.7572 64.66C46.5772 64.56 46.3472 64.51 46.0672 64.51C45.7672 64.51 45.4939 64.57 45.2472 64.69C45.0005 64.81 44.7939 64.94 44.6272 65.08C44.4605 65.2133 44.3505 65.31 44.2972 65.37L44.1072 65.14C44.1205 65.1267 44.1805 65.0733 44.2872 64.98C44.4005 64.88 44.5505 64.77 44.7372 64.65C44.9239 64.5233 45.1372 64.4167 45.3772 64.33C45.6239 64.2367 45.8872 64.19 46.1672 64.19C46.5005 64.19 46.7772 64.25 46.9972 64.37C47.2172 64.49 47.3805 64.6467 47.4872 64.84C47.5939 65.0333 47.6472 65.24 47.6472 65.46C47.6472 65.8133 47.5639 66.1067 47.3972 66.34C47.2305 66.5733 46.9772 66.7833 46.6372 66.97C46.3039 67.1567 45.8872 67.3567 45.3872 67.57C45.0739 67.71 44.8005 67.8767 44.5672 68.07C44.3339 68.2567 44.1372 68.4533 43.9772 68.66C43.8172 68.8667 43.6905 69.06 43.5972 69.24C43.5105 69.42 43.4539 69.5667 43.4272 69.68H46.8772L46.7972 70H42.9772Z" fill="#524B4B"/>
<path d="M48.5007 67.45L48.5607 67.12H51.2807L51.2107 67.45H48.5007Z" fill="#524B4B"/>
<path d="M52.9456 71.47C52.4723 71.47 52.079 71.3567 51.7656 71.13C51.4523 70.91 51.2623 70.61 51.1956 70.23L51.5056 70.05C51.5523 70.3833 51.709 70.65 51.9756 70.85C52.249 71.05 52.599 71.15 53.0256 71.15C53.439 71.15 53.8023 71.0633 54.1156 70.89C54.4356 70.7167 54.6856 70.4767 54.8656 70.17C55.0523 69.87 55.1456 69.52 55.1456 69.12C55.1456 68.7133 55.019 68.39 54.7656 68.15C54.5123 67.91 54.1456 67.79 53.6656 67.79H53.4456L53.5056 67.48H53.7356C54.3623 67.48 54.8523 67.3267 55.2056 67.02C55.559 66.7133 55.7356 66.3067 55.7356 65.8C55.7356 65.4267 55.6156 65.1267 55.3756 64.9C55.1356 64.6733 54.8156 64.56 54.4156 64.56C54.029 64.56 53.6656 64.66 53.3256 64.86C52.9923 65.0533 52.7256 65.3133 52.5256 65.64L52.3156 65.47C52.529 65.1033 52.8356 64.8067 53.2356 64.58C53.6356 64.3533 54.059 64.24 54.5056 64.24C54.9923 64.24 55.379 64.38 55.6656 64.66C55.9523 64.94 56.0956 65.2933 56.0956 65.72C56.0956 66.0467 56.019 66.3467 55.8656 66.62C55.719 66.8933 55.5156 67.12 55.2556 67.3C54.9956 67.48 54.7023 67.5933 54.3756 67.64C54.729 67.6933 55.0023 67.8567 55.1956 68.13C55.389 68.3967 55.4856 68.7233 55.4856 69.11C55.4856 69.5633 55.3723 69.9667 55.1456 70.32C54.919 70.68 54.6123 70.96 54.2256 71.16C53.8456 71.3667 53.419 71.47 52.9456 71.47Z" fill="#524B4B"/>
<path d="M61.1396 64.5H57.2296L57.2996 64.17H61.7696L56.8096 71.27H56.4296L61.1396 64.5Z" fill="#524B4B"/>
<path d="M61.317 70C61.3504 69.8467 61.407 69.6567 61.487 69.43C61.567 69.2033 61.6837 68.9667 61.837 68.72C61.997 68.4667 62.2104 68.2233 62.477 67.99C62.7437 67.75 63.077 67.5433 63.477 67.37C63.9637 67.17 64.3637 66.9867 64.677 66.82C64.997 66.6533 65.2337 66.47 65.387 66.27C65.5404 66.07 65.617 65.8233 65.617 65.53C65.617 65.3633 65.5737 65.2033 65.487 65.05C65.407 64.89 65.277 64.76 65.097 64.66C64.917 64.56 64.687 64.51 64.407 64.51C64.107 64.51 63.8337 64.57 63.587 64.69C63.3404 64.81 63.1337 64.94 62.967 65.08C62.8004 65.2133 62.6904 65.31 62.637 65.37L62.447 65.14C62.4604 65.1267 62.5204 65.0733 62.627 64.98C62.7404 64.88 62.8904 64.77 63.077 64.65C63.2637 64.5233 63.477 64.4167 63.717 64.33C63.9637 64.2367 64.227 64.19 64.507 64.19C64.8404 64.19 65.117 64.25 65.337 64.37C65.557 64.49 65.7204 64.6467 65.827 64.84C65.9337 65.0333 65.987 65.24 65.987 65.46C65.987 65.8133 65.9037 66.1067 65.737 66.34C65.5704 66.5733 65.317 66.7833 64.977 66.97C64.6437 67.1567 64.227 67.3567 63.727 67.57C63.4137 67.71 63.1404 67.8767 62.907 68.07C62.6737 68.2567 62.477 68.4533 62.317 68.66C62.157 68.8667 62.0304 69.06 61.937 69.24C61.8504 69.42 61.7937 69.5667 61.767 69.68H65.217L65.137 70H61.317Z" fill="#524B4B"/>
<path d="M66.8405 67.45L66.9005 67.12H69.6205L69.5505 67.45H66.8405Z" fill="#524B4B"/>
<path d="M70.2082 69.68H71.5582L72.5982 64.76C72.5315 64.84 72.4282 64.93 72.2882 65.03C72.1482 65.1233 71.9915 65.2133 71.8182 65.3C71.6449 65.3867 71.4715 65.46 71.2982 65.52C71.1315 65.5733 70.9849 65.6 70.8582 65.6L70.9382 65.24C71.0982 65.24 71.2782 65.1967 71.4782 65.11C71.6782 65.0167 71.8682 64.91 72.0482 64.79C72.2282 64.67 72.3782 64.56 72.4982 64.46C72.6182 64.36 72.6849 64.3033 72.6982 64.29H73.0482L71.8982 69.68H73.1082L73.0482 70H70.1382L70.2082 69.68Z" fill="#524B4B"/>
<path d="M76.1894 70.1C75.6227 70.1 75.166 69.91 74.8194 69.53C74.4794 69.1433 74.3094 68.6167 74.3094 67.95C74.3094 67.2967 74.3927 66.6667 74.5594 66.06C74.726 65.4533 74.9627 64.91 75.2694 64.43C75.576 63.9433 75.9394 63.56 76.3594 63.28C76.786 62.9933 77.256 62.85 77.7694 62.85C78.2227 62.85 78.5994 62.98 78.8994 63.24C79.1994 63.4933 79.376 63.84 79.4294 64.28L79.1394 64.44C79.0994 64.06 78.946 63.7533 78.6794 63.52C78.4194 63.2867 78.0927 63.17 77.6994 63.17C77.2394 63.17 76.8094 63.3233 76.4094 63.63C76.016 63.93 75.676 64.3567 75.3894 64.91C75.1027 65.4567 74.8894 66.09 74.7494 66.81C74.9094 66.49 75.1227 66.2133 75.3894 65.98C75.656 65.7467 75.9494 65.5667 76.2694 65.44C76.596 65.3133 76.9294 65.25 77.2694 65.25C77.636 65.25 77.9594 65.34 78.2394 65.52C78.5194 65.6933 78.736 65.93 78.8894 66.23C79.0427 66.53 79.1194 66.8667 79.1194 67.24C79.1194 67.62 79.036 67.9833 78.8694 68.33C78.7094 68.6767 78.4894 68.9833 78.2094 69.25C77.936 69.51 77.6227 69.7167 77.2694 69.87C76.9227 70.0233 76.5627 70.1 76.1894 70.1ZM76.2694 69.78C76.5827 69.78 76.886 69.7167 77.1794 69.59C77.4794 69.4567 77.7494 69.2767 77.9894 69.05C78.2294 68.8167 78.4194 68.5533 78.5594 68.26C78.6994 67.96 78.7694 67.6433 78.7694 67.31C78.7694 66.99 78.6994 66.6967 78.5594 66.43C78.426 66.1633 78.236 65.9533 77.9894 65.8C77.7494 65.64 77.4727 65.56 77.1594 65.56C76.846 65.56 76.5394 65.6267 76.2394 65.76C75.946 65.8933 75.6794 66.0767 75.4394 66.31C75.1994 66.5433 75.006 66.81 74.8594 67.11C74.7194 67.4033 74.6494 67.7133 74.6494 68.04C74.6494 68.36 74.7194 68.6533 74.8594 68.92C74.9994 69.18 75.1894 69.39 75.4294 69.55C75.676 69.7033 75.956 69.78 76.2694 69.78Z" fill="#524B4B"/>
<path d="M81.9295 70.1C81.5561 70.1 81.2361 70.0033 80.9695 69.81C80.7028 69.61 80.4961 69.3367 80.3495 68.99C80.2028 68.6433 80.1295 68.2467 80.1295 67.8C80.1295 67.28 80.2128 66.7933 80.3795 66.34C80.5461 65.8867 80.7728 65.4867 81.0595 65.14C81.3528 64.7933 81.6828 64.5233 82.0495 64.33C82.4228 64.13 82.8128 64.03 83.2195 64.03C83.5928 64.03 83.9128 64.13 84.1795 64.33C84.4528 64.5233 84.6595 64.7933 84.7995 65.14C84.9461 65.4867 85.0195 65.8867 85.0195 66.34C85.0195 66.86 84.9361 67.3467 84.7695 67.8C84.6028 68.2533 84.3728 68.6533 84.0795 69C83.7928 69.3467 83.4628 69.6167 83.0895 69.81C82.7228 70.0033 82.3361 70.1 81.9295 70.1ZM81.9995 69.77C82.3595 69.77 82.6995 69.6833 83.0195 69.51C83.3461 69.3367 83.6328 69.0967 83.8795 68.79C84.1261 68.4767 84.3194 68.1133 84.4594 67.7C84.6061 67.2867 84.6795 66.84 84.6795 66.36C84.6795 65.7667 84.5428 65.2867 84.2695 64.92C84.0028 64.5467 83.6295 64.36 83.1495 64.36C82.7895 64.36 82.4461 64.45 82.1195 64.63C81.7995 64.8033 81.5161 65.0467 81.2695 65.36C81.0228 65.6667 80.8261 66.0267 80.6795 66.44C80.5395 66.8533 80.4695 67.3 80.4695 67.78C80.4695 68.3733 80.6028 68.8533 80.8695 69.22C81.1428 69.5867 81.5195 69.77 81.9995 69.77Z" fill="#524B4B"/>
<path d="M87.8084 70.1C87.435 70.1 87.115 70.0033 86.8484 69.81C86.5817 69.61 86.375 69.3367 86.2284 68.99C86.0817 68.6433 86.0084 68.2467 86.0084 67.8C86.0084 67.28 86.0917 66.7933 86.2584 66.34C86.425 65.8867 86.6517 65.4867 86.9384 65.14C87.2317 64.7933 87.5617 64.5233 87.9284 64.33C88.3017 64.13 88.6917 64.03 89.0984 64.03C89.4717 64.03 89.7917 64.13 90.0584 64.33C90.3317 64.5233 90.5384 64.7933 90.6784 65.14C90.825 65.4867 90.8984 65.8867 90.8984 66.34C90.8984 66.86 90.815 67.3467 90.6484 67.8C90.4817 68.2533 90.2517 68.6533 89.9584 69C89.6717 69.3467 89.3417 69.6167 88.9684 69.81C88.6017 70.0033 88.215 70.1 87.8084 70.1ZM87.8784 69.77C88.2384 69.77 88.5784 69.6833 88.8984 69.51C89.225 69.3367 89.5117 69.0967 89.7584 68.79C90.005 68.4767 90.1984 68.1133 90.3384 67.7C90.485 67.2867 90.5584 66.84 90.5584 66.36C90.5584 65.7667 90.4217 65.2867 90.1484 64.92C89.8817 64.5467 89.5084 64.36 89.0284 64.36C88.6684 64.36 88.325 64.45 87.9984 64.63C87.6784 64.8033 87.395 65.0467 87.1484 65.36C86.9017 65.6667 86.705 66.0267 86.5584 66.44C86.4184 66.8533 86.3484 67.3 86.3484 67.78C86.3484 68.3733 86.4817 68.8533 86.7484 69.22C87.0217 69.5867 87.3984 69.77 87.8784 69.77Z" fill="#524B4B"/>
<path d="M61 41H63V43H61V41Z" fill="#FF4343"/>
</svg>
