<svg width="234" height="92" viewBox="0 0 234 92" fill="none" xmlns="http://www.w3.org/2000/svg">
<rect x="14.5" y="18.5" width="208" height="73" stroke="#ACA1A1"/>
<rect width="234" height="85" fill="#F5EEE9"/>
<path d="M125.331 21.2V47H123.931V18.6H125.051L145.851 44.8V18.6H147.251V47H145.811L125.331 21.2ZM162.593 47.4C160.727 47.4 159.033 46.9067 157.513 45.92C155.993 44.9333 154.793 43.6267 153.913 42C153.033 40.3733 152.593 38.6 152.593 36.68C152.593 35.2133 152.847 33.8267 153.353 32.52C153.887 31.2133 154.607 30.0667 155.513 29.08C156.447 28.0933 157.513 27.32 158.713 26.76C159.913 26.1733 161.207 25.88 162.593 25.88C163.98 25.88 165.273 26.1733 166.473 26.76C167.7 27.32 168.767 28.0933 169.673 29.08C170.607 30.0667 171.327 31.2133 171.833 32.52C172.367 33.8267 172.633 35.2133 172.633 36.68C172.633 38.12 172.367 39.4933 171.833 40.8C171.327 42.08 170.62 43.2133 169.713 44.2C168.807 45.1867 167.74 45.9733 166.513 46.56C165.313 47.12 164.007 47.4 162.593 47.4ZM153.953 36.72C153.953 38.4533 154.34 40.04 155.113 41.48C155.913 42.8933 156.953 44.0267 158.233 44.88C159.54 45.7067 160.98 46.12 162.553 46.12C164.153 46.12 165.607 45.6933 166.913 44.84C168.22 43.9867 169.26 42.84 170.033 41.4C170.833 39.9333 171.233 38.3467 171.233 36.64C171.233 34.9067 170.833 33.3333 170.033 31.92C169.26 30.48 168.22 29.3333 166.913 28.48C165.607 27.6 164.167 27.16 162.593 27.16C161.047 27.16 159.607 27.6 158.273 28.48C156.967 29.3333 155.913 30.4933 155.113 31.96C154.34 33.4 153.953 34.9867 153.953 36.72ZM186.948 27.48C185.028 27.56 183.362 28.1733 181.948 29.32C180.535 30.44 179.548 31.9733 178.988 33.92V47H177.628V26.2H178.948V31.48C179.668 30.0133 180.628 28.8133 181.828 27.88C183.055 26.9467 184.335 26.4 185.668 26.24C185.935 26.24 186.175 26.24 186.388 26.24C186.628 26.2133 186.815 26.2 186.948 26.2V27.48ZM199.51 46.04C199.457 46.0667 199.244 46.1867 198.87 46.4C198.497 46.5867 198.017 46.7733 197.43 46.96C196.844 47.12 196.19 47.2 195.47 47.2C194.43 47.2 193.524 46.9067 192.75 46.32C192.004 45.7067 191.63 44.8533 191.63 43.76V27.4H188.67V26.2H191.63V19.04H192.99V26.2H197.91V27.4H192.99V43.56C193.044 44.3333 193.337 44.92 193.87 45.32C194.404 45.72 195.017 45.92 195.71 45.92C196.59 45.92 197.337 45.7733 197.95 45.48C198.59 45.1867 198.937 45 198.99 44.92L199.51 46.04ZM219.696 47H218.336V35.4C218.336 29.9067 216.509 27.16 212.856 27.16C211.629 27.16 210.443 27.4667 209.296 28.08C208.149 28.6667 207.149 29.48 206.296 30.52C205.443 31.5333 204.843 32.6933 204.496 34V47H203.136V17.8H204.496V31.4C205.349 29.72 206.549 28.3867 208.096 27.4C209.669 26.3867 211.336 25.88 213.096 25.88C215.309 25.88 216.963 26.6933 218.056 28.32C219.149 29.9467 219.696 32.2533 219.696 35.24V47Z" fill="#1F262A"/>
<path d="M17.0588 47V18.6H28.6988C30.2454 18.6 31.6321 19.0267 32.8588 19.88C34.0854 20.7333 35.0454 21.8267 35.7388 23.16C36.4588 24.4933 36.8188 25.8667 36.8188 27.28C36.8188 28.8 36.4854 30.2267 35.8187 31.56C35.1521 32.8667 34.2321 33.9467 33.0588 34.8C31.8854 35.6267 30.5121 36.04 28.9388 36.04H18.4588V47H17.0588ZM18.4588 34.76H28.8988C30.2588 34.76 31.4188 34.4 32.3788 33.68C33.3654 32.9333 34.1121 32 34.6188 30.88C35.1521 29.7333 35.4188 28.5333 35.4188 27.28C35.4188 26 35.1121 24.8 34.4988 23.68C33.8854 22.5333 33.0588 21.6133 32.0188 20.92C31.0054 20.2267 29.8854 19.88 28.6588 19.88H18.4588V34.76ZM49.4319 47.4C47.5652 47.4 45.8719 46.9067 44.3519 45.92C42.8319 44.9333 41.6319 43.6267 40.7519 42C39.8719 40.3733 39.4319 38.6 39.4319 36.68C39.4319 35.2133 39.6852 33.8267 40.1919 32.52C40.7252 31.2133 41.4452 30.0667 42.3519 29.08C43.2852 28.0933 44.3519 27.32 45.5519 26.76C46.7519 26.1733 48.0452 25.88 49.4319 25.88C50.8185 25.88 52.1119 26.1733 53.3119 26.76C54.5385 27.32 55.6052 28.0933 56.5119 29.08C57.4452 30.0667 58.1652 31.2133 58.6719 32.52C59.2052 33.8267 59.4719 35.2133 59.4719 36.68C59.4719 38.12 59.2052 39.4933 58.6719 40.8C58.1652 42.08 57.4585 43.2133 56.5519 44.2C55.6452 45.1867 54.5785 45.9733 53.3519 46.56C52.1519 47.12 50.8452 47.4 49.4319 47.4ZM40.7919 36.72C40.7919 38.4533 41.1785 40.04 41.9519 41.48C42.7519 42.8933 43.7919 44.0267 45.0719 44.88C46.3785 45.7067 47.8185 46.12 49.3919 46.12C50.9919 46.12 52.4452 45.6933 53.7519 44.84C55.0585 43.9867 56.0985 42.84 56.8719 41.4C57.6719 39.9333 58.0719 38.3467 58.0719 36.64C58.0719 34.9067 57.6719 33.3333 56.8719 31.92C56.0985 30.48 55.0585 29.3333 53.7519 28.48C52.4452 27.6 51.0052 27.16 49.4319 27.16C47.8852 27.16 46.4452 27.6 45.1119 28.48C43.8052 29.3333 42.7519 30.4933 41.9519 31.96C41.1785 33.4 40.7919 34.9867 40.7919 36.72ZM64.4666 21.16V17.8H65.8266V21.16H64.4666ZM64.4666 47V26.2H65.8266V47H64.4666ZM88.9172 47H87.5572V35.4C87.5572 32.5467 87.1439 30.4667 86.3172 29.16C85.5172 27.8267 84.2372 27.16 82.4772 27.16C81.2239 27.16 79.9972 27.4667 78.7972 28.08C77.5972 28.6667 76.5439 29.48 75.6372 30.52C74.7305 31.5333 74.0905 32.6933 73.7172 34V47H72.3572V26.2H73.6772V31.4C74.2372 30.3067 74.9839 29.3467 75.9172 28.52C76.8772 27.6933 77.9439 27.0533 79.1172 26.6C80.2905 26.12 81.4905 25.88 82.7172 25.88C84.9039 25.88 86.4772 26.6667 87.4372 28.24C88.4239 29.8133 88.9172 32.1467 88.9172 35.24V47ZM103.614 46.04C103.561 46.0667 103.348 46.1867 102.974 46.4C102.601 46.5867 102.121 46.7733 101.534 46.96C100.948 47.12 100.294 47.2 99.5744 47.2C98.5344 47.2 97.6277 46.9067 96.8544 46.32C96.1077 45.7067 95.7344 44.8533 95.7344 43.76V27.4H92.7744V26.2H95.7344V19.04H97.0944V26.2H102.014V27.4H97.0944V43.56C97.1477 44.3333 97.441 44.92 97.9744 45.32C98.5077 45.72 99.121 45.92 99.8144 45.92C100.694 45.92 101.441 45.7733 102.054 45.48C102.694 45.1867 103.041 45 103.094 44.92L103.614 46.04Z" fill="#1F262A"/>
<path d="M75.4445 51.22H80.3225C80.9225 51.22 81.4325 51.376 81.8525 51.688C82.2845 52 82.6085 52.402 82.8245 52.894C83.0405 53.374 83.1485 53.884 83.1485 54.424C83.1485 54.988 83.0345 55.546 82.8065 56.098C82.5905 56.65 82.2785 57.148 81.8705 57.592C81.4745 58.036 81.0185 58.396 80.5025 58.672C79.9865 58.936 79.4405 59.068 78.8645 59.068H74.4005L73.3565 64H72.7265L75.4445 51.22ZM78.9725 58.492C79.4645 58.492 79.9265 58.372 80.3585 58.132C80.7905 57.892 81.1685 57.574 81.4925 57.178C81.8165 56.782 82.0685 56.344 82.2485 55.864C82.4405 55.384 82.5365 54.91 82.5365 54.442C82.5365 53.962 82.4405 53.524 82.2485 53.128C82.0565 52.732 81.7925 52.414 81.4565 52.174C81.1205 51.922 80.7245 51.796 80.2685 51.796H75.9485L74.5265 58.492H78.9725ZM85.1592 54.64H85.7532L85.2492 57.016C85.7292 56.296 86.2812 55.738 86.9052 55.342C87.5292 54.934 88.1592 54.706 88.7952 54.658C88.8672 54.646 88.9332 54.64 88.9932 54.64C89.0532 54.64 89.1132 54.646 89.1732 54.658L89.0472 55.216C88.2192 55.252 87.4452 55.528 86.7252 56.044C86.0172 56.548 85.4532 57.238 85.0332 58.114L83.7912 64H83.1792L85.1592 54.64ZM92.3188 64.18C91.5388 64.18 90.8908 64.006 90.3748 63.658C89.8708 63.298 89.4868 62.824 89.2228 62.236C88.9708 61.648 88.8448 61 88.8448 60.292C88.8448 59.488 88.9888 58.738 89.2768 58.042C89.5768 57.334 89.9788 56.716 90.4828 56.188C90.9988 55.66 91.5748 55.246 92.2108 54.946C92.8468 54.646 93.5128 54.496 94.2088 54.496C94.9768 54.496 95.6188 54.676 96.1348 55.036C96.6508 55.384 97.0348 55.858 97.2868 56.458C97.5388 57.046 97.6648 57.7 97.6648 58.42C97.6648 59.212 97.5208 59.956 97.2328 60.652C96.9448 61.348 96.5488 61.96 96.0448 62.488C95.5528 63.016 94.9828 63.43 94.3348 63.73C93.6988 64.03 93.0268 64.18 92.3188 64.18ZM92.4268 63.604C93.0148 63.604 93.5848 63.478 94.1368 63.226C94.6888 62.962 95.1808 62.602 95.6128 62.146C96.0568 61.678 96.4048 61.138 96.6568 60.526C96.9208 59.914 97.0528 59.248 97.0528 58.528C97.0528 57.892 96.9388 57.316 96.7108 56.8C96.4948 56.272 96.1648 55.852 95.7208 55.54C95.2888 55.228 94.7488 55.072 94.1008 55.072C93.5128 55.072 92.9428 55.204 92.3908 55.468C91.8388 55.72 91.3408 56.08 90.8968 56.548C90.4648 57.016 90.1168 57.562 89.8528 58.186C89.6008 58.81 89.4748 59.482 89.4748 60.202C89.4748 60.838 89.5828 61.414 89.7988 61.93C90.0148 62.446 90.3388 62.854 90.7708 63.154C91.2148 63.454 91.7668 63.604 92.4268 63.604ZM100.787 54.64H101.345L100.931 56.584C101.435 55.972 102.035 55.474 102.731 55.09C103.439 54.694 104.129 54.496 104.801 54.496C105.509 54.496 106.109 54.688 106.601 55.072C107.105 55.444 107.489 55.936 107.753 56.548C108.017 57.148 108.149 57.79 108.149 58.474C108.149 59.182 108.011 59.878 107.735 60.562C107.459 61.234 107.075 61.846 106.583 62.398C106.103 62.938 105.545 63.37 104.909 63.694C104.285 64.018 103.619 64.18 102.911 64.18C102.131 64.18 101.483 63.958 100.967 63.514C100.451 63.07 100.079 62.536 99.8506 61.912L98.5906 67.834H97.9786L100.787 54.64ZM102.929 63.604C103.553 63.604 104.141 63.46 104.693 63.172C105.245 62.872 105.731 62.476 106.151 61.984C106.583 61.48 106.919 60.934 107.159 60.346C107.399 59.746 107.519 59.146 107.519 58.546C107.519 57.922 107.399 57.346 107.159 56.818C106.919 56.29 106.577 55.87 106.133 55.558C105.701 55.234 105.185 55.072 104.585 55.072C104.261 55.072 103.895 55.144 103.487 55.288C103.091 55.432 102.701 55.63 102.317 55.882C101.933 56.134 101.597 56.422 101.309 56.746C101.021 57.07 100.823 57.412 100.715 57.772L100.031 60.994C100.175 61.726 100.505 62.344 101.021 62.848C101.549 63.352 102.185 63.604 102.929 63.604ZM113.135 64.18C112.403 64.18 111.773 64 111.245 63.64C110.717 63.28 110.309 62.8 110.021 62.2C109.733 61.6 109.583 60.94 109.571 60.22C109.547 59.5 109.661 58.798 109.913 58.114C110.165 57.43 110.525 56.818 110.993 56.278C111.461 55.738 112.013 55.306 112.649 54.982C113.297 54.658 113.999 54.496 114.755 54.496C115.583 54.496 116.291 54.712 116.879 55.144C117.467 55.564 117.767 56.2 117.779 57.052C117.815 58 117.437 58.666 116.645 59.05C115.865 59.422 114.671 59.608 113.063 59.608C112.631 59.608 112.187 59.602 111.731 59.59C111.275 59.566 110.771 59.536 110.219 59.5C110.195 59.692 110.189 59.878 110.201 60.058C110.213 60.742 110.339 61.354 110.579 61.894C110.819 62.434 111.161 62.866 111.605 63.19C112.061 63.502 112.619 63.658 113.279 63.658C114.047 63.658 114.713 63.478 115.277 63.118C115.853 62.746 116.303 62.254 116.627 61.642L117.185 61.804C116.801 62.524 116.261 63.1 115.565 63.532C114.881 63.964 114.071 64.18 113.135 64.18ZM114.683 55.036C113.939 55.036 113.261 55.228 112.649 55.612C112.049 55.984 111.539 56.476 111.119 57.088C110.711 57.688 110.435 58.324 110.291 58.996C110.879 59.032 111.395 59.056 111.839 59.068C112.283 59.08 112.709 59.086 113.117 59.086C114.137 59.086 114.947 59.014 115.547 58.87C116.159 58.726 116.591 58.504 116.843 58.204C117.095 57.904 117.209 57.526 117.185 57.07C117.173 56.59 117.041 56.2 116.789 55.9C116.549 55.6 116.237 55.384 115.853 55.252C115.481 55.108 115.091 55.036 114.683 55.036ZM120.772 54.64H121.366L120.862 57.016C121.342 56.296 121.894 55.738 122.518 55.342C123.142 54.934 123.772 54.706 124.408 54.658C124.48 54.646 124.546 54.64 124.606 54.64C124.666 54.64 124.726 54.646 124.786 54.658L124.66 55.216C123.832 55.252 123.058 55.528 122.338 56.044C121.63 56.548 121.066 57.238 120.646 58.114L119.404 64H118.792L120.772 54.64ZM125.24 62.902C125.24 62.854 125.24 62.8 125.24 62.74C125.252 62.68 125.264 62.614 125.276 62.542L126.842 55.18H125.582L125.69 54.64H126.968L127.652 51.418H128.264L127.58 54.64H129.686L129.56 55.18H127.454L126.05 61.714C125.942 62.23 125.888 62.536 125.888 62.632C125.888 62.92 125.978 63.142 126.158 63.298C126.35 63.442 126.578 63.514 126.842 63.514C127.214 63.514 127.544 63.448 127.832 63.316C128.132 63.184 128.306 63.1 128.354 63.064L128.462 63.568C128.426 63.592 128.318 63.646 128.138 63.73C127.97 63.814 127.748 63.898 127.472 63.982C127.208 64.054 126.92 64.09 126.608 64.09C126.212 64.09 125.882 63.988 125.618 63.784C125.366 63.568 125.24 63.274 125.24 62.902ZM132.709 50.86H133.321L132.997 52.372H132.385L132.709 50.86ZM131.899 54.64H132.511L130.531 64H129.919L131.899 54.64ZM137.235 64.18C136.503 64.18 135.873 64 135.345 63.64C134.817 63.28 134.409 62.8 134.121 62.2C133.833 61.6 133.683 60.94 133.671 60.22C133.647 59.5 133.761 58.798 134.013 58.114C134.265 57.43 134.625 56.818 135.093 56.278C135.561 55.738 136.113 55.306 136.749 54.982C137.397 54.658 138.099 54.496 138.855 54.496C139.683 54.496 140.391 54.712 140.979 55.144C141.567 55.564 141.867 56.2 141.879 57.052C141.915 58 141.537 58.666 140.745 59.05C139.965 59.422 138.771 59.608 137.163 59.608C136.731 59.608 136.287 59.602 135.831 59.59C135.375 59.566 134.871 59.536 134.319 59.5C134.295 59.692 134.289 59.878 134.301 60.058C134.313 60.742 134.439 61.354 134.679 61.894C134.919 62.434 135.261 62.866 135.705 63.19C136.161 63.502 136.719 63.658 137.379 63.658C138.147 63.658 138.813 63.478 139.377 63.118C139.953 62.746 140.403 62.254 140.727 61.642L141.285 61.804C140.901 62.524 140.361 63.1 139.665 63.532C138.981 63.964 138.171 64.18 137.235 64.18ZM138.783 55.036C138.039 55.036 137.361 55.228 136.749 55.612C136.149 55.984 135.639 56.476 135.219 57.088C134.811 57.688 134.535 58.324 134.391 58.996C134.979 59.032 135.495 59.056 135.939 59.068C136.383 59.08 136.809 59.086 137.217 59.086C138.237 59.086 139.047 59.014 139.647 58.87C140.259 58.726 140.691 58.504 140.943 58.204C141.195 57.904 141.309 57.526 141.285 57.07C141.273 56.59 141.141 56.2 140.889 55.9C140.649 55.6 140.337 55.384 139.953 55.252C139.581 55.108 139.191 55.036 138.783 55.036ZM145.574 64.18C144.878 64.18 144.254 64.06 143.702 63.82C143.162 63.568 142.718 63.196 142.37 62.704L142.784 62.29C143.168 62.746 143.588 63.088 144.044 63.316C144.5 63.532 145.034 63.64 145.646 63.64C146.27 63.64 146.828 63.544 147.32 63.352C147.812 63.148 148.196 62.866 148.472 62.506C148.76 62.134 148.904 61.708 148.904 61.228C148.904 60.712 148.682 60.346 148.238 60.13C147.794 59.902 147.164 59.68 146.348 59.464C145.82 59.32 145.37 59.182 144.998 59.05C144.626 58.918 144.344 58.744 144.152 58.528C143.972 58.3 143.882 57.994 143.882 57.61C143.882 56.926 144.056 56.356 144.404 55.9C144.752 55.432 145.214 55.084 145.79 54.856C146.378 54.616 147.014 54.496 147.698 54.496C148.418 54.496 149.012 54.622 149.48 54.874C149.948 55.126 150.26 55.444 150.416 55.828L149.966 56.134C149.786 55.774 149.48 55.504 149.048 55.324C148.616 55.132 148.124 55.036 147.572 55.036C147.08 55.036 146.594 55.12 146.114 55.288C145.646 55.456 145.256 55.72 144.944 56.08C144.644 56.428 144.494 56.884 144.494 57.448C144.494 57.892 144.662 58.204 144.998 58.384C145.346 58.564 145.874 58.744 146.582 58.924C147.182 59.092 147.704 59.26 148.148 59.428C148.592 59.584 148.934 59.794 149.174 60.058C149.414 60.31 149.534 60.652 149.534 61.084C149.534 61.732 149.36 62.29 149.012 62.758C148.676 63.214 148.208 63.568 147.608 63.82C147.02 64.06 146.342 64.18 145.574 64.18Z" fill="#565656"/>
<path d="M110 33.5H114V37.5H110V33.5Z" fill="#FF4343"/>
</svg>
