<svg width="234" height="99" viewBox="0 0 234 99" fill="none" xmlns="http://www.w3.org/2000/svg">
<path d="M127.24 27.4946V53.2946H125.84V24.8946H126.96L147.76 51.0946V24.8946H149.16V53.2946H147.72L127.24 27.4946ZM163.302 53.6946C161.436 53.6946 159.742 53.2013 158.222 52.2146C156.702 51.2279 155.502 49.9213 154.622 48.2946C153.742 46.6679 153.302 44.8946 153.302 42.9746C153.302 41.5079 153.556 40.1213 154.062 38.8146C154.596 37.5079 155.316 36.3613 156.222 35.3746C157.156 34.3879 158.222 33.6146 159.422 33.0546C160.622 32.4679 161.916 32.1746 163.302 32.1746C164.689 32.1746 165.982 32.4679 167.182 33.0546C168.409 33.6146 169.476 34.3879 170.382 35.3746C171.316 36.3613 172.036 37.5079 172.542 38.8146C173.076 40.1213 173.342 41.5079 173.342 42.9746C173.342 44.4146 173.076 45.7879 172.542 47.0946C172.036 48.3746 171.329 49.5079 170.422 50.4946C169.516 51.4813 168.449 52.268 167.222 52.8546C166.022 53.4146 164.716 53.6946 163.302 53.6946ZM154.662 43.0146C154.662 44.7479 155.049 46.3346 155.822 47.7746C156.622 49.1879 157.662 50.3213 158.942 51.1746C160.249 52.0013 161.689 52.4146 163.262 52.4146C164.862 52.4146 166.316 51.9879 167.622 51.1346C168.929 50.2813 169.969 49.1346 170.742 47.6946C171.542 46.2279 171.942 44.6413 171.942 42.9346C171.942 41.2013 171.542 39.6279 170.742 38.2146C169.969 36.7746 168.929 35.6279 167.622 34.7746C166.316 33.8946 164.876 33.4546 163.302 33.4546C161.756 33.4546 160.316 33.8946 158.982 34.7746C157.676 35.6279 156.622 36.7879 155.822 38.2546C155.049 39.6946 154.662 41.2813 154.662 43.0146ZM186.457 33.7746C184.537 33.8546 182.87 34.4679 181.457 35.6146C180.044 36.7346 179.057 38.2679 178.497 40.2146V53.2946H177.137V32.4946H178.457V37.7746C179.177 36.3079 180.137 35.1079 181.337 34.1746C182.564 33.2413 183.844 32.6946 185.177 32.5346C185.444 32.5346 185.684 32.5346 185.897 32.5346C186.137 32.5079 186.324 32.4946 186.457 32.4946V33.7746ZM197.819 52.3346C197.766 52.3613 197.552 52.4813 197.179 52.6946C196.806 52.8813 196.326 53.068 195.739 53.2546C195.152 53.4146 194.499 53.4946 193.779 53.4946C192.739 53.4946 191.832 53.2013 191.059 52.6146C190.312 52.0013 189.939 51.1479 189.939 50.0546V33.6946H186.979V32.4946H189.939V25.3346H191.299V32.4946H196.219V33.6946H191.299V49.8546C191.352 50.6279 191.646 51.2146 192.179 51.6146C192.712 52.0146 193.326 52.2146 194.019 52.2146C194.899 52.2146 195.646 52.0679 196.259 51.7746C196.899 51.4813 197.246 51.2946 197.299 51.2146L197.819 52.3346ZM216.805 53.2946H215.445V41.6946C215.445 36.2013 213.618 33.4546 209.965 33.4546C208.738 33.4546 207.551 33.7613 206.405 34.3746C205.258 34.9613 204.258 35.7746 203.405 36.8146C202.551 37.8279 201.951 38.9879 201.605 40.2946V53.2946H200.245V24.0946H201.605V37.6946C202.458 36.0146 203.658 34.6813 205.205 33.6946C206.778 32.6813 208.445 32.1746 210.205 32.1746C212.418 32.1746 214.071 32.988 215.165 34.6146C216.258 36.2413 216.805 38.5479 216.805 41.5346V53.2946Z" fill="#FEF8F3"/>
<path d="M15.0588 53.2946V24.8946H26.6988C28.2454 24.8946 29.6321 25.3213 30.8588 26.1746C32.0854 27.0279 33.0454 28.1213 33.7388 29.4546C34.4588 30.7879 34.8188 32.1613 34.8188 33.5746C34.8188 35.0946 34.4854 36.5213 33.8187 37.8546C33.1521 39.1613 32.2321 40.2413 31.0588 41.0946C29.8854 41.9213 28.5121 42.3346 26.9388 42.3346H16.4588V53.2946H15.0588ZM16.4588 41.0546H26.8988C28.2588 41.0546 29.4188 40.6946 30.3788 39.9746C31.3654 39.2279 32.1121 38.2946 32.6188 37.1746C33.1521 36.0279 33.4188 34.8279 33.4188 33.5746C33.4188 32.2946 33.1121 31.0946 32.4988 29.9746C31.8854 28.8279 31.0588 27.9079 30.0188 27.2146C29.0054 26.5213 27.8854 26.1746 26.6588 26.1746H16.4588V41.0546ZM47.4319 53.6946C45.5652 53.6946 43.8719 53.2013 42.3519 52.2146C40.8319 51.2279 39.6319 49.9213 38.7519 48.2946C37.8719 46.6679 37.4319 44.8946 37.4319 42.9746C37.4319 41.5079 37.6852 40.1213 38.1919 38.8146C38.7252 37.5079 39.4452 36.3613 40.3519 35.3746C41.2852 34.3879 42.3519 33.6146 43.5519 33.0546C44.7519 32.4679 46.0452 32.1746 47.4319 32.1746C48.8185 32.1746 50.1119 32.4679 51.3119 33.0546C52.5385 33.6146 53.6052 34.3879 54.5119 35.3746C55.4452 36.3613 56.1652 37.5079 56.6719 38.8146C57.2052 40.1213 57.4719 41.5079 57.4719 42.9746C57.4719 44.4146 57.2052 45.7879 56.6719 47.0946C56.1652 48.3746 55.4585 49.5079 54.5519 50.4946C53.6452 51.4813 52.5785 52.268 51.3519 52.8546C50.1519 53.4146 48.8452 53.6946 47.4319 53.6946ZM38.7919 43.0146C38.7919 44.7479 39.1785 46.3346 39.9519 47.7746C40.7519 49.1879 41.7919 50.3213 43.0719 51.1746C44.3785 52.0013 45.8185 52.4146 47.3919 52.4146C48.9919 52.4146 50.4452 51.9879 51.7519 51.1346C53.0585 50.2813 54.0985 49.1346 54.8719 47.6946C55.6719 46.2279 56.0719 44.6413 56.0719 42.9346C56.0719 41.2013 55.6719 39.6279 54.8719 38.2146C54.0985 36.7746 53.0585 35.6279 51.7519 34.7746C50.4452 33.8946 49.0052 33.4546 47.4319 33.4546C45.8852 33.4546 44.4452 33.8946 43.1119 34.7746C41.8052 35.6279 40.7519 36.7879 39.9519 38.2546C39.1785 39.6946 38.7919 41.2813 38.7919 43.0146ZM62.4666 27.4546V24.0946H63.8266V27.4546H62.4666ZM62.4666 53.2946V32.4946H63.8266V53.2946H62.4666ZM86.9172 53.2946H85.5572V41.6946C85.5572 38.8413 85.1439 36.7613 84.3172 35.4546C83.5172 34.1213 82.2372 33.4546 80.4772 33.4546C79.2239 33.4546 77.9972 33.7613 76.7972 34.3746C75.5972 34.9613 74.5439 35.7746 73.6372 36.8146C72.7305 37.8279 72.0905 38.9879 71.7172 40.2946V53.2946H70.3572V32.4946H71.6772V37.6946C72.2372 36.6013 72.9839 35.6413 73.9172 34.8146C74.8772 33.9879 75.9439 33.3479 77.1172 32.8946C78.2905 32.4146 79.4905 32.1746 80.7172 32.1746C82.9039 32.1746 84.4772 32.9613 85.4372 34.5346C86.4239 36.1079 86.9172 38.4413 86.9172 41.5346V53.2946ZM101.614 52.3346C101.561 52.3613 101.348 52.4813 100.974 52.6946C100.601 52.8813 100.121 53.068 99.5344 53.2546C98.9477 53.4146 98.2944 53.4946 97.5744 53.4946C96.5344 53.4946 95.6277 53.2013 94.8544 52.6146C94.1077 52.0013 93.7344 51.1479 93.7344 50.0546V33.6946H90.7744V32.4946H93.7344V25.3346H95.0944V32.4946H100.014V33.6946H95.0944V49.8546C95.1477 50.6279 95.441 51.2146 95.9744 51.6146C96.5077 52.0146 97.121 52.2146 97.8144 52.2146C98.6944 52.2146 99.441 52.0679 100.054 51.7746C100.694 51.4813 101.041 51.2946 101.094 51.2146L101.614 52.3346Z" fill="#FEF8F3"/>
<path d="M78.4445 65.22H83.3225C83.9225 65.22 84.4325 65.376 84.8525 65.688C85.2845 66 85.6085 66.402 85.8245 66.894C86.0405 67.374 86.1485 67.884 86.1485 68.424C86.1485 68.988 86.0345 69.546 85.8065 70.098C85.5905 70.65 85.2785 71.148 84.8705 71.592C84.4745 72.036 84.0185 72.396 83.5025 72.672C82.9865 72.936 82.4405 73.068 81.8645 73.068H77.4005L76.3565 78H75.7265L78.4445 65.22ZM81.9725 72.492C82.4645 72.492 82.9265 72.372 83.3585 72.132C83.7905 71.892 84.1685 71.574 84.4925 71.178C84.8165 70.782 85.0685 70.344 85.2485 69.864C85.4405 69.384 85.5365 68.91 85.5365 68.442C85.5365 67.962 85.4405 67.524 85.2485 67.128C85.0565 66.732 84.7925 66.414 84.4565 66.174C84.1205 65.922 83.7245 65.796 83.2685 65.796H78.9485L77.5265 72.492H81.9725ZM88.1592 68.64H88.7532L88.2492 71.016C88.7292 70.296 89.2812 69.738 89.9052 69.342C90.5292 68.934 91.1592 68.706 91.7952 68.658C91.8672 68.646 91.9332 68.64 91.9932 68.64C92.0532 68.64 92.1132 68.646 92.1732 68.658L92.0472 69.216C91.2192 69.252 90.4452 69.528 89.7252 70.044C89.0172 70.548 88.4532 71.238 88.0332 72.114L86.7912 78H86.1792L88.1592 68.64ZM95.3188 78.18C94.5388 78.18 93.8908 78.006 93.3748 77.658C92.8708 77.298 92.4868 76.824 92.2228 76.236C91.9708 75.648 91.8448 75 91.8448 74.292C91.8448 73.488 91.9888 72.738 92.2768 72.042C92.5768 71.334 92.9788 70.716 93.4828 70.188C93.9988 69.66 94.5748 69.246 95.2108 68.946C95.8468 68.646 96.5128 68.496 97.2088 68.496C97.9768 68.496 98.6188 68.676 99.1348 69.036C99.6508 69.384 100.035 69.858 100.287 70.458C100.539 71.046 100.665 71.7 100.665 72.42C100.665 73.212 100.521 73.956 100.233 74.652C99.9448 75.348 99.5488 75.96 99.0448 76.488C98.5528 77.016 97.9828 77.43 97.3348 77.73C96.6988 78.03 96.0268 78.18 95.3188 78.18ZM95.4268 77.604C96.0148 77.604 96.5848 77.478 97.1368 77.226C97.6888 76.962 98.1808 76.602 98.6128 76.146C99.0568 75.678 99.4048 75.138 99.6568 74.526C99.9208 73.914 100.053 73.248 100.053 72.528C100.053 71.892 99.9388 71.316 99.7108 70.8C99.4948 70.272 99.1648 69.852 98.7208 69.54C98.2888 69.228 97.7488 69.072 97.1008 69.072C96.5128 69.072 95.9428 69.204 95.3908 69.468C94.8388 69.72 94.3408 70.08 93.8968 70.548C93.4648 71.016 93.1168 71.562 92.8528 72.186C92.6008 72.81 92.4748 73.482 92.4748 74.202C92.4748 74.838 92.5828 75.414 92.7988 75.93C93.0148 76.446 93.3388 76.854 93.7708 77.154C94.2148 77.454 94.7668 77.604 95.4268 77.604ZM103.787 68.64H104.345L103.931 70.584C104.435 69.972 105.035 69.474 105.731 69.09C106.439 68.694 107.129 68.496 107.801 68.496C108.509 68.496 109.109 68.688 109.601 69.072C110.105 69.444 110.489 69.936 110.753 70.548C111.017 71.148 111.149 71.79 111.149 72.474C111.149 73.182 111.011 73.878 110.735 74.562C110.459 75.234 110.075 75.846 109.583 76.398C109.103 76.938 108.545 77.37 107.909 77.694C107.285 78.018 106.619 78.18 105.911 78.18C105.131 78.18 104.483 77.958 103.967 77.514C103.451 77.07 103.079 76.536 102.851 75.912L101.591 81.834H100.979L103.787 68.64ZM105.929 77.604C106.553 77.604 107.141 77.46 107.693 77.172C108.245 76.872 108.731 76.476 109.151 75.984C109.583 75.48 109.919 74.934 110.159 74.346C110.399 73.746 110.519 73.146 110.519 72.546C110.519 71.922 110.399 71.346 110.159 70.818C109.919 70.29 109.577 69.87 109.133 69.558C108.701 69.234 108.185 69.072 107.585 69.072C107.261 69.072 106.895 69.144 106.487 69.288C106.091 69.432 105.701 69.63 105.317 69.882C104.933 70.134 104.597 70.422 104.309 70.746C104.021 71.07 103.823 71.412 103.715 71.772L103.031 74.994C103.175 75.726 103.505 76.344 104.021 76.848C104.549 77.352 105.185 77.604 105.929 77.604ZM116.135 78.18C115.403 78.18 114.773 78 114.245 77.64C113.717 77.28 113.309 76.8 113.021 76.2C112.733 75.6 112.583 74.94 112.571 74.22C112.547 73.5 112.661 72.798 112.913 72.114C113.165 71.43 113.525 70.818 113.993 70.278C114.461 69.738 115.013 69.306 115.649 68.982C116.297 68.658 116.999 68.496 117.755 68.496C118.583 68.496 119.291 68.712 119.879 69.144C120.467 69.564 120.767 70.2 120.779 71.052C120.815 72 120.437 72.666 119.645 73.05C118.865 73.422 117.671 73.608 116.063 73.608C115.631 73.608 115.187 73.602 114.731 73.59C114.275 73.566 113.771 73.536 113.219 73.5C113.195 73.692 113.189 73.878 113.201 74.058C113.213 74.742 113.339 75.354 113.579 75.894C113.819 76.434 114.161 76.866 114.605 77.19C115.061 77.502 115.619 77.658 116.279 77.658C117.047 77.658 117.713 77.478 118.277 77.118C118.853 76.746 119.303 76.254 119.627 75.642L120.185 75.804C119.801 76.524 119.261 77.1 118.565 77.532C117.881 77.964 117.071 78.18 116.135 78.18ZM117.683 69.036C116.939 69.036 116.261 69.228 115.649 69.612C115.049 69.984 114.539 70.476 114.119 71.088C113.711 71.688 113.435 72.324 113.291 72.996C113.879 73.032 114.395 73.056 114.839 73.068C115.283 73.08 115.709 73.086 116.117 73.086C117.137 73.086 117.947 73.014 118.547 72.87C119.159 72.726 119.591 72.504 119.843 72.204C120.095 71.904 120.209 71.526 120.185 71.07C120.173 70.59 120.041 70.2 119.789 69.9C119.549 69.6 119.237 69.384 118.853 69.252C118.481 69.108 118.091 69.036 117.683 69.036ZM123.772 68.64H124.366L123.862 71.016C124.342 70.296 124.894 69.738 125.518 69.342C126.142 68.934 126.772 68.706 127.408 68.658C127.48 68.646 127.546 68.64 127.606 68.64C127.666 68.64 127.726 68.646 127.786 68.658L127.66 69.216C126.832 69.252 126.058 69.528 125.338 70.044C124.63 70.548 124.066 71.238 123.646 72.114L122.404 78H121.792L123.772 68.64ZM128.24 76.902C128.24 76.854 128.24 76.8 128.24 76.74C128.252 76.68 128.264 76.614 128.276 76.542L129.842 69.18H128.582L128.69 68.64H129.968L130.652 65.418H131.264L130.58 68.64H132.686L132.56 69.18H130.454L129.05 75.714C128.942 76.23 128.888 76.536 128.888 76.632C128.888 76.92 128.978 77.142 129.158 77.298C129.35 77.442 129.578 77.514 129.842 77.514C130.214 77.514 130.544 77.448 130.832 77.316C131.132 77.184 131.306 77.1 131.354 77.064L131.462 77.568C131.426 77.592 131.318 77.646 131.138 77.73C130.97 77.814 130.748 77.898 130.472 77.982C130.208 78.054 129.92 78.09 129.608 78.09C129.212 78.09 128.882 77.988 128.618 77.784C128.366 77.568 128.24 77.274 128.24 76.902ZM135.709 64.86H136.321L135.997 66.372H135.385L135.709 64.86ZM134.899 68.64H135.511L133.531 78H132.919L134.899 68.64ZM140.235 78.18C139.503 78.18 138.873 78 138.345 77.64C137.817 77.28 137.409 76.8 137.121 76.2C136.833 75.6 136.683 74.94 136.671 74.22C136.647 73.5 136.761 72.798 137.013 72.114C137.265 71.43 137.625 70.818 138.093 70.278C138.561 69.738 139.113 69.306 139.749 68.982C140.397 68.658 141.099 68.496 141.855 68.496C142.683 68.496 143.391 68.712 143.979 69.144C144.567 69.564 144.867 70.2 144.879 71.052C144.915 72 144.537 72.666 143.745 73.05C142.965 73.422 141.771 73.608 140.163 73.608C139.731 73.608 139.287 73.602 138.831 73.59C138.375 73.566 137.871 73.536 137.319 73.5C137.295 73.692 137.289 73.878 137.301 74.058C137.313 74.742 137.439 75.354 137.679 75.894C137.919 76.434 138.261 76.866 138.705 77.19C139.161 77.502 139.719 77.658 140.379 77.658C141.147 77.658 141.813 77.478 142.377 77.118C142.953 76.746 143.403 76.254 143.727 75.642L144.285 75.804C143.901 76.524 143.361 77.1 142.665 77.532C141.981 77.964 141.171 78.18 140.235 78.18ZM141.783 69.036C141.039 69.036 140.361 69.228 139.749 69.612C139.149 69.984 138.639 70.476 138.219 71.088C137.811 71.688 137.535 72.324 137.391 72.996C137.979 73.032 138.495 73.056 138.939 73.068C139.383 73.08 139.809 73.086 140.217 73.086C141.237 73.086 142.047 73.014 142.647 72.87C143.259 72.726 143.691 72.504 143.943 72.204C144.195 71.904 144.309 71.526 144.285 71.07C144.273 70.59 144.141 70.2 143.889 69.9C143.649 69.6 143.337 69.384 142.953 69.252C142.581 69.108 142.191 69.036 141.783 69.036ZM148.574 78.18C147.878 78.18 147.254 78.06 146.702 77.82C146.162 77.568 145.718 77.196 145.37 76.704L145.784 76.29C146.168 76.746 146.588 77.088 147.044 77.316C147.5 77.532 148.034 77.64 148.646 77.64C149.27 77.64 149.828 77.544 150.32 77.352C150.812 77.148 151.196 76.866 151.472 76.506C151.76 76.134 151.904 75.708 151.904 75.228C151.904 74.712 151.682 74.346 151.238 74.13C150.794 73.902 150.164 73.68 149.348 73.464C148.82 73.32 148.37 73.182 147.998 73.05C147.626 72.918 147.344 72.744 147.152 72.528C146.972 72.3 146.882 71.994 146.882 71.61C146.882 70.926 147.056 70.356 147.404 69.9C147.752 69.432 148.214 69.084 148.79 68.856C149.378 68.616 150.014 68.496 150.698 68.496C151.418 68.496 152.012 68.622 152.48 68.874C152.948 69.126 153.26 69.444 153.416 69.828L152.966 70.134C152.786 69.774 152.48 69.504 152.048 69.324C151.616 69.132 151.124 69.036 150.572 69.036C150.08 69.036 149.594 69.12 149.114 69.288C148.646 69.456 148.256 69.72 147.944 70.08C147.644 70.428 147.494 70.884 147.494 71.448C147.494 71.892 147.662 72.204 147.998 72.384C148.346 72.564 148.874 72.744 149.582 72.924C150.182 73.092 150.704 73.26 151.148 73.428C151.592 73.584 151.934 73.794 152.174 74.058C152.414 74.31 152.534 74.652 152.534 75.084C152.534 75.732 152.36 76.29 152.012 76.758C151.676 77.214 151.208 77.568 150.608 77.82C150.02 78.06 149.342 78.18 148.574 78.18Z" fill="#FEF8F3"/>
<path d="M111 37.3419H115V41.3414H111V37.3419Z" fill="#EA5656"/>
</svg>
