<svg width="932" height="726" viewBox="0 0 932 726" fill="none" xmlns="http://www.w3.org/2000/svg">
<path d="M903.5 32V64H850.5V42H846V74H911L911.5 248.5H903.5V262.5H894V264M903.5 32H874.5M903.5 32V30.5M874.5 32V35.5H710.5V28H874.5V30.5M874.5 32V30.5M716 110.5H708V199H679.5M716 110.5V262.5H727.5V264M716 110.5C738.5 110.5 746 99 746 82.5M679.5 199V203.5H708V248.5H623V203.5H650V200M679.5 199C679.243 174.391 672.157 169.113 651.5 169.5M708 272H727.5V270.5M708 272V257H663M708 272L707 447M623 110.5H618V115M623 110.5V199H649M623 110.5C645.679 109.431 653.374 104.309 653 82.5M663 257H660M663 257V447M618.5 593V591H626.5V627.5M618.5 593H567.5M618.5 593V595M559 575H567.5V595M559 575V651.5M559 575V573.5H536M626.5 27H618V30M626.5 27V64H657V68M626.5 27V0.5M618 30H568M618 30V32M618 32H568M618 32V76M894 264H727.5M894 264V270.5M727.5 264V270.5M514 32V35.5H568V27H514V30M514 32V31.25V30M514 32H464M464 30H514M136 45V65H456V27H464V174M456 257H464V239.5H459.5M456 257H407.5V292.5H391V251.5M456 257V353H464M464 353H377V368H338.5V384H377M464 353V365H385.5V384H381.25M515 365H527M515 365V354M515 365H464.5M567.5 365V345H556.5M567.5 365H556.5M567.5 365V530.5H559M556.5 345V365M556.5 345H527M556.5 365H527M556.5 365V517.5H385.5V506H381.25M527 345H515V354M527 345V365M515 354H464.5M559 530.5V531.5H536M559 530.5V529.5M377 506H338V522.5H377V551.5M377 506V384M377 506H381.25M377 384H381.25M381.25 384V506M377 558V560.5H385.5V526H559V529.5M377 558H366.5V630.5H377M377 558V551.5M377 630.5V636.5M377 630.5V628H385.5V648.5H515V651.5M377 636.5H361.5V552.5M377 636.5V657H515V654.25M377 551.5H361.5V552.5M559 651.5H515M559 651.5V654.25M515 651.5V654.25M515 654.25H559M559 654.25V657H567.5V595M660 257H618V175M660 257V449.5V457M663 518.5H695.5V633H660.5V630.25M663 518.5V508H660V518.5M663 518.5H660M660 518.5H618.5V560.5H626.5V526H687.5V625H660.5V627.5M622 497.5V500H671.5V497.5H622ZM622 497.5C621.865 468.301 627.759 457.266 660 457M707 447H663M707 447H769M663 447V457H660M894 270.5V272H931.5V262.5H911.5V255H919.5V159.5V64H911V28H903.5V30V30.5M894 270.5H727.5M746 82.5V80H716M746 82.5H715V81M715 81H716V80M715 81H708V74.5M716 80V74H773V64H708V68M903.5 30.5H874.5M653 82.5V80L623 80.125M653 82.5H622V81M622 81H623V80.125M622 81H618V76M623 80.125V79.25V77.5H657V74.5M650 200V199H649M650 200H651.5V169.5M651.5 169.5H649V199M618 76H598.5V55H484.5L483.5 174H464M464 174V175H459.5M618 115H598.5V175H618M618 115V175M436.5 175H432.5V167.5H456V74H136V78.5H120V53.5H88.5H67V78M436.5 175V239.5M436.5 175H447.5M436.5 239.5H432.5V248.5H391V251.5M436.5 239.5H447.5M447.5 239.5V175M447.5 239.5H459.5M447.5 175H459.5M459.5 175V239.5M391 251.5L388.5 250.5L383 278M391 251.5L385.5 279L383 278M391 251.5H254.5M383 278L379 251.5L376.5 252M383 278L380.5 278.5L376.5 252M376.5 252L374 251L368.5 278.5L371 279.5L376.5 252ZM355 279L351 252.5L348.5 253L352.5 279.5L354.5 278.5M354.5 278.5L360 251L362.5 252L357 279.5L354.5 278.5ZM708 68H657M708 68V74.5M657 68V74.5M708 74.5H657M361.5 552.5H0.5V438.5M660.5 627.5H626.5M660.5 627.5V630.25M626.5 627.5V630.25M626.5 630.25V633H618.5V595M626.5 630.25H660.5M618.5 595H567.5M536 531.5V529.5H559M536 531.5C535.951 547.345 540.635 552.241 559 552.5C538.482 552.258 535.738 558.534 536 573.5M536 573.5V575.5H559.5M559 550.5V554.5M456 244.5V248.5H436.5V244.5H456ZM369 279L365 252.5L362.5 253L366.5 279.5L369 279ZM282 389H55V497.5H282V389Z" stroke="#857F7F"/>
<circle r="90.5" transform="matrix(-1 0 0 1 798 635)" stroke="#857F7F"/>
<circle r="78" transform="matrix(-1 0 0 1 269.5 622.5)" stroke="#857F7F"/>
<circle r="60" transform="matrix(-1 0 0 1 168.5 622.5)" stroke="#857F7F"/>
<path d="M791.617 160.216C790.033 160.216 788.585 160.624 787.273 161.44C785.977 162.24 784.945 163.32 784.177 164.68C783.425 166.024 783.049 167.472 783.049 169.024C783.049 170.592 783.433 172.048 784.201 173.392C784.969 174.736 785.985 175.808 787.249 176.608C788.529 177.392 789.905 177.784 791.377 177.784C792.241 177.784 793.009 177.704 793.681 177.544C794.369 177.384 795.025 177.128 795.649 176.776V171.136H789.697V170.44H796.441V176.272L796.489 176.248V177.136C795.721 177.6 794.929 177.936 794.113 178.144C793.313 178.368 792.433 178.48 791.473 178.48C789.793 178.48 788.249 178.072 786.841 177.256C785.433 176.424 784.313 175.288 783.481 173.848C782.665 172.392 782.257 170.76 782.257 168.952C782.257 167.208 782.681 165.616 783.529 164.176C784.393 162.736 785.537 161.6 786.961 160.768C788.401 159.936 789.929 159.52 791.545 159.52C792.665 159.52 793.553 159.624 794.209 159.832C794.865 160.024 795.625 160.368 796.489 160.864V161.752C795.673 161.192 794.913 160.8 794.209 160.576C793.521 160.336 792.657 160.216 791.617 160.216ZM804.44 178.264C803.416 178.264 802.464 178.008 801.584 177.496C800.704 176.984 800.008 176.296 799.496 175.432C798.984 174.552 798.728 173.608 798.728 172.6C798.728 171.592 798.984 170.656 799.496 169.792C800.008 168.912 800.704 168.216 801.584 167.704C802.464 167.192 803.416 166.936 804.44 166.936C805.48 166.936 806.464 167.216 807.392 167.776C808.32 168.32 808.968 169.032 809.336 169.912V167.2H810.104V178H809.336V175.312C808.904 176.208 808.232 176.928 807.32 177.472C806.424 178 805.464 178.264 804.44 178.264ZM804.488 177.592C805.368 177.592 806.184 177.368 806.936 176.92C807.688 176.456 808.28 175.848 808.712 175.096C809.16 174.328 809.384 173.496 809.384 172.6C809.384 171.72 809.16 170.896 808.712 170.128C808.264 169.36 807.664 168.752 806.912 168.304C806.16 167.84 805.344 167.608 804.464 167.608C803.584 167.608 802.76 167.84 801.992 168.304C801.24 168.768 800.632 169.384 800.168 170.152C799.72 170.92 799.496 171.744 799.496 172.624C799.496 173.504 799.72 174.328 800.168 175.096C800.632 175.848 801.248 176.456 802.016 176.92C802.784 177.368 803.608 177.592 804.488 177.592ZM813.133 167.2H813.901V169.696C814.221 168.912 814.685 168.296 815.293 167.848C815.917 167.4 816.621 167.176 817.405 167.176C817.901 167.176 818.405 167.28 818.917 167.488V168.376C818.453 168.024 817.933 167.848 817.357 167.848C816.781 167.848 816.221 168.024 815.677 168.376C815.149 168.728 814.717 169.2 814.381 169.792C814.061 170.384 813.901 171.016 813.901 171.688V178H813.133V167.2ZM825.909 178.264C824.885 178.264 823.933 178.008 823.053 177.496C822.173 176.984 821.477 176.296 820.965 175.432C820.453 174.552 820.197 173.608 820.197 172.6C820.197 171.592 820.453 170.656 820.965 169.792C821.477 168.912 822.173 168.216 823.053 167.704C823.933 167.192 824.885 166.936 825.909 166.936C826.949 166.936 827.933 167.216 828.861 167.776C829.789 168.32 830.437 169.032 830.805 169.912V167.2H831.573V178H830.805V175.312C830.373 176.208 829.701 176.928 828.789 177.472C827.893 178 826.933 178.264 825.909 178.264ZM825.957 177.592C826.837 177.592 827.653 177.368 828.405 176.92C829.157 176.456 829.749 175.848 830.181 175.096C830.629 174.328 830.853 173.496 830.853 172.6C830.853 171.72 830.629 170.896 830.181 170.128C829.733 169.36 829.133 168.752 828.381 168.304C827.629 167.84 826.813 167.608 825.933 167.608C825.053 167.608 824.229 167.84 823.461 168.304C822.709 168.768 822.101 169.384 821.637 170.152C821.189 170.92 820.965 171.744 820.965 172.624C820.965 173.504 821.189 174.328 821.637 175.096C822.101 175.848 822.717 176.456 823.485 176.92C824.253 177.368 825.077 177.592 825.957 177.592ZM839.81 182.992C838.898 182.992 838.01 182.784 837.146 182.368C836.282 181.952 835.61 181.408 835.13 180.736V179.632C835.546 180.4 836.194 181.04 837.074 181.552C837.97 182.064 838.882 182.32 839.81 182.32C841.346 182.32 842.53 181.864 843.362 180.952C844.194 180.056 844.61 178.736 844.61 176.992V175.384C844.178 176.248 843.498 176.952 842.57 177.496C841.658 178.024 840.698 178.288 839.69 178.288C838.666 178.288 837.714 178.032 836.834 177.52C835.954 177.008 835.258 176.32 834.746 175.456C834.234 174.576 833.978 173.632 833.978 172.624C833.978 171.616 834.234 170.68 834.746 169.816C835.258 168.936 835.954 168.24 836.834 167.728C837.714 167.216 838.666 166.96 839.69 166.96C840.746 166.96 841.722 167.224 842.618 167.752C843.514 168.28 844.178 168.992 844.61 169.888V167.2H845.378V176.992C845.378 178.96 844.898 180.448 843.938 181.456C842.994 182.48 841.618 182.992 839.81 182.992ZM839.738 177.616C840.618 177.616 841.434 177.392 842.186 176.944C842.938 176.48 843.53 175.872 843.962 175.12C844.41 174.352 844.634 173.52 844.634 172.624C844.634 171.728 844.41 170.904 843.962 170.152C843.53 169.384 842.938 168.776 842.186 168.328C841.434 167.864 840.618 167.632 839.738 167.632C838.842 167.632 838.01 167.864 837.242 168.328C836.49 168.776 835.882 169.384 835.418 170.152C834.97 170.904 834.746 171.728 834.746 172.624C834.746 173.52 834.97 174.352 835.418 175.12C835.882 175.872 836.49 176.48 837.242 176.944C838.01 177.392 838.842 177.616 839.738 177.616ZM853.663 177.616C854.495 177.616 855.287 177.4 856.039 176.968C856.791 176.536 857.415 175.944 857.911 175.192V176.416C857.319 177.072 856.671 177.552 855.967 177.856C855.263 178.144 854.463 178.288 853.567 178.288C852.575 178.288 851.639 178.024 850.759 177.496C849.895 176.968 849.199 176.264 848.671 175.384C848.159 174.504 847.903 173.568 847.903 172.576C847.903 171.504 848.159 170.544 848.671 169.696C849.183 168.832 849.879 168.16 850.759 167.68C851.655 167.2 852.647 166.96 853.735 166.96C855.399 166.96 856.815 167.616 857.983 168.928L850.447 176.368C850.975 176.8 851.487 177.12 851.983 177.328C852.479 177.52 853.039 177.616 853.663 177.616ZM848.671 172.504C848.671 173.832 849.111 174.968 849.991 175.912L857.023 168.928C856.495 168.464 855.983 168.136 855.487 167.944C854.991 167.736 854.399 167.632 853.711 167.632C852.735 167.632 851.863 167.848 851.095 168.28C850.343 168.696 849.751 169.272 849.319 170.008C848.887 170.744 848.671 171.576 848.671 172.504Z" fill="#857F7F"/>
<path d="M523.443 141L513.915 130.992V141H513.123V123H513.915V129.528L521.427 123H522.555L514.131 130.2L524.499 141H523.443ZM527.526 127.728C527.302 127.728 527.102 127.648 526.926 127.488C526.766 127.328 526.686 127.128 526.686 126.888C526.686 126.664 526.766 126.472 526.926 126.312C527.102 126.152 527.302 126.072 527.526 126.072C527.75 126.072 527.942 126.152 528.102 126.312C528.278 126.472 528.366 126.664 528.366 126.888C528.366 127.128 528.278 127.328 528.102 127.488C527.942 127.648 527.75 127.728 527.526 127.728ZM527.142 130.2H527.91V141H527.142V130.2ZM535.353 141.144C534.169 141.144 533.185 140.784 532.401 140.064C531.633 139.344 531.249 138.352 531.249 137.088V125.856H532.017V130.2H535.329V130.872H532.017V137.088C532.017 138.144 532.329 138.976 532.953 139.584C533.593 140.176 534.393 140.472 535.353 140.472V141.144ZM542.459 141.312C541.419 141.312 540.459 141.064 539.579 140.568C538.715 140.072 538.027 139.392 537.515 138.528C537.003 137.664 536.747 136.688 536.747 135.6C536.747 134.592 537.003 133.664 537.515 132.816C538.027 131.952 538.723 131.264 539.603 130.752C540.499 130.24 541.483 129.984 542.555 129.984C543.451 129.984 544.219 130.128 544.859 130.416C545.499 130.704 546.123 131.152 546.731 131.76V133.056C546.203 132.272 545.611 131.68 544.955 131.28C544.315 130.864 543.515 130.656 542.555 130.656C541.675 130.656 540.843 130.888 540.059 131.352C539.291 131.8 538.675 132.408 538.211 133.176C537.747 133.944 537.515 134.768 537.515 135.648C537.515 136.608 537.739 137.472 538.187 138.24C538.635 138.992 539.235 139.584 539.987 140.016C540.755 140.432 541.579 140.64 542.459 140.64C544.251 140.64 545.675 139.832 546.731 138.216V139.512C546.155 140.12 545.515 140.576 544.811 140.88C544.123 141.168 543.339 141.312 542.459 141.312ZM548.856 123H549.624V132.432C549.96 131.712 550.528 131.12 551.328 130.656C552.144 130.176 552.968 129.936 553.8 129.936C555.32 129.936 556.488 130.352 557.304 131.184C558.136 132.016 558.552 133.192 558.552 134.712V141H557.784V134.712C557.784 133.4 557.432 132.392 556.728 131.688C556.04 130.968 555.064 130.608 553.8 130.608C553.032 130.608 552.328 130.792 551.688 131.16C551.048 131.512 550.544 132.008 550.176 132.648C549.808 133.272 549.624 133.96 549.624 134.712V141H548.856V123ZM566.838 140.616C567.67 140.616 568.462 140.4 569.214 139.968C569.966 139.536 570.59 138.944 571.086 138.192V139.416C570.494 140.072 569.846 140.552 569.142 140.856C568.438 141.144 567.638 141.288 566.742 141.288C565.75 141.288 564.814 141.024 563.934 140.496C563.07 139.968 562.374 139.264 561.846 138.384C561.334 137.504 561.078 136.568 561.078 135.576C561.078 134.504 561.334 133.544 561.846 132.696C562.358 131.832 563.054 131.16 563.934 130.68C564.83 130.2 565.822 129.96 566.91 129.96C568.574 129.96 569.99 130.616 571.158 131.928L563.622 139.368C564.15 139.8 564.662 140.12 565.158 140.328C565.654 140.52 566.214 140.616 566.838 140.616ZM561.846 135.504C561.846 136.832 562.286 137.968 563.166 138.912L570.198 131.928C569.67 131.464 569.158 131.136 568.662 130.944C568.166 130.736 567.574 130.632 566.886 130.632C565.91 130.632 565.038 130.848 564.27 131.28C563.518 131.696 562.926 132.272 562.494 133.008C562.062 133.744 561.846 134.576 561.846 135.504ZM573.559 130.2H574.327V132.6C574.679 131.8 575.279 131.16 576.127 130.68C576.975 130.184 577.911 129.936 578.935 129.936C580.263 129.936 581.311 130.36 582.079 131.208C582.863 132.04 583.255 133.208 583.255 134.712V141H582.487V134.712C582.487 133.416 582.167 132.408 581.527 131.688C580.903 130.968 580.023 130.608 578.887 130.608C578.055 130.608 577.287 130.8 576.583 131.184C575.895 131.552 575.343 132.064 574.927 132.72C574.527 133.376 574.327 134.12 574.327 134.952V141H573.559V130.2Z" fill="#857F7F"/>
<path d="M489.287 263H490.055C492.919 263 495.127 263.784 496.679 265.352C498.247 266.904 499.031 269.12 499.031 272C499.031 273.648 498.631 275.16 497.831 276.536C497.031 277.912 495.943 279 494.567 279.8C493.207 280.6 491.703 281 490.055 281H489.287V263ZM490.247 280.256C491.719 280.256 493.063 279.896 494.279 279.176C495.495 278.44 496.455 277.44 497.159 276.176C497.879 274.912 498.239 273.52 498.239 272C498.239 269.344 497.543 267.304 496.151 265.88C494.775 264.44 492.807 263.72 490.247 263.72H490.055V280.256H490.247ZM502.612 267.728C502.388 267.728 502.188 267.648 502.012 267.488C501.852 267.328 501.772 267.128 501.772 266.888C501.772 266.664 501.852 266.472 502.012 266.312C502.188 266.152 502.388 266.072 502.612 266.072C502.836 266.072 503.028 266.152 503.188 266.312C503.364 266.472 503.452 266.664 503.452 266.888C503.452 267.128 503.364 267.328 503.188 267.488C503.028 267.648 502.836 267.728 502.612 267.728ZM502.228 270.2H502.996V281H502.228V270.2ZM506.575 270.2H507.343V272.6C507.695 271.8 508.295 271.16 509.143 270.68C509.991 270.184 510.927 269.936 511.951 269.936C513.279 269.936 514.327 270.36 515.095 271.208C515.879 272.04 516.271 273.208 516.271 274.712V281H515.503V274.712C515.503 273.416 515.183 272.408 514.543 271.688C513.919 270.968 513.039 270.608 511.903 270.608C511.071 270.608 510.303 270.8 509.599 271.184C508.911 271.552 508.359 272.064 507.943 272.72C507.543 273.376 507.343 274.12 507.343 274.952V281H506.575V270.2ZM520.237 267.728C520.013 267.728 519.813 267.648 519.637 267.488C519.477 267.328 519.397 267.128 519.397 266.888C519.397 266.664 519.477 266.472 519.637 266.312C519.813 266.152 520.013 266.072 520.237 266.072C520.461 266.072 520.653 266.152 520.813 266.312C520.989 266.472 521.077 266.664 521.077 266.888C521.077 267.128 520.989 267.328 520.813 267.488C520.653 267.648 520.461 267.728 520.237 267.728ZM519.853 270.2H520.621V281H519.853V270.2ZM524.2 270.2H524.968V272.6C525.32 271.8 525.92 271.16 526.768 270.68C527.616 270.184 528.552 269.936 529.576 269.936C530.904 269.936 531.952 270.36 532.72 271.208C533.504 272.04 533.896 273.208 533.896 274.712V281H533.128V274.712C533.128 273.416 532.808 272.408 532.168 271.688C531.544 270.968 530.664 270.608 529.528 270.608C528.696 270.608 527.928 270.8 527.224 271.184C526.536 271.552 525.984 272.064 525.568 272.72C525.168 273.376 524.968 274.12 524.968 274.952V281H524.2V270.2ZM542.134 285.992C541.222 285.992 540.334 285.784 539.47 285.368C538.606 284.952 537.934 284.408 537.454 283.736V282.632C537.87 283.4 538.518 284.04 539.398 284.552C540.294 285.064 541.206 285.32 542.134 285.32C543.67 285.32 544.854 284.864 545.686 283.952C546.518 283.056 546.934 281.736 546.934 279.992V278.384C546.502 279.248 545.822 279.952 544.894 280.496C543.982 281.024 543.022 281.288 542.014 281.288C540.99 281.288 540.038 281.032 539.158 280.52C538.278 280.008 537.582 279.32 537.07 278.456C536.558 277.576 536.302 276.632 536.302 275.624C536.302 274.616 536.558 273.68 537.07 272.816C537.582 271.936 538.278 271.24 539.158 270.728C540.038 270.216 540.99 269.96 542.014 269.96C543.07 269.96 544.046 270.224 544.942 270.752C545.838 271.28 546.502 271.992 546.934 272.888V270.2H547.702V279.992C547.702 281.96 547.222 283.448 546.262 284.456C545.318 285.48 543.942 285.992 542.134 285.992ZM542.062 280.616C542.942 280.616 543.758 280.392 544.51 279.944C545.262 279.48 545.854 278.872 546.286 278.12C546.734 277.352 546.958 276.52 546.958 275.624C546.958 274.728 546.734 273.904 546.286 273.152C545.854 272.384 545.262 271.776 544.51 271.328C543.758 270.864 542.942 270.632 542.062 270.632C541.166 270.632 540.334 270.864 539.566 271.328C538.814 271.776 538.206 272.384 537.742 273.152C537.294 273.904 537.07 274.728 537.07 275.624C537.07 276.52 537.294 277.352 537.742 278.12C538.206 278.872 538.814 279.48 539.566 279.944C540.334 280.392 541.166 280.616 542.062 280.616ZM556.388 263H557.42C559.292 263 560.732 263.496 561.74 264.488C562.764 265.48 563.276 266.896 563.276 268.736C563.276 269.792 563.02 270.76 562.508 271.64C562.012 272.52 561.332 273.216 560.468 273.728C559.604 274.224 558.652 274.472 557.612 274.472H557.444L563.636 281H562.604L557.156 275.288V281H556.388V263ZM557.588 273.776C558.5 273.776 559.332 273.552 560.084 273.104C560.836 272.656 561.428 272.056 561.86 271.304C562.292 270.536 562.508 269.688 562.508 268.76C562.508 267.144 562.068 265.896 561.188 265.016C560.324 264.136 559.084 263.696 557.468 263.696H557.156V273.776H557.588ZM571.054 281.384C569.966 281.384 568.982 281.12 568.102 280.592C567.222 280.048 566.534 279.336 566.038 278.456C565.542 277.56 565.294 276.592 565.294 275.552C565.294 274.528 565.542 273.576 566.038 272.696C566.55 271.816 567.238 271.12 568.102 270.608C568.982 270.08 569.958 269.816 571.03 269.816C572.086 269.816 573.046 270.08 573.91 270.608C574.79 271.12 575.478 271.816 575.974 272.696C576.47 273.576 576.718 274.528 576.718 275.552C576.718 276.624 576.478 277.608 575.998 278.504C575.518 279.384 574.846 280.088 573.982 280.616C573.134 281.128 572.158 281.384 571.054 281.384ZM571.054 280.712C571.966 280.712 572.798 280.48 573.55 280.016C574.302 279.552 574.886 278.936 575.302 278.168C575.734 277.384 575.95 276.528 575.95 275.6C575.95 274.688 575.734 273.84 575.302 273.056C574.87 272.272 574.278 271.648 573.526 271.184C572.774 270.72 571.942 270.488 571.03 270.488C570.118 270.488 569.278 270.728 568.51 271.208C567.758 271.672 567.158 272.296 566.71 273.08C566.278 273.864 566.062 274.712 566.062 275.624C566.062 276.536 566.278 277.384 566.71 278.168C567.158 278.936 567.758 279.552 568.51 280.016C569.278 280.48 570.126 280.712 571.054 280.712ZM584.25 281.384C583.162 281.384 582.178 281.12 581.298 280.592C580.418 280.048 579.73 279.336 579.234 278.456C578.738 277.56 578.49 276.592 578.49 275.552C578.49 274.528 578.738 273.576 579.234 272.696C579.746 271.816 580.434 271.12 581.298 270.608C582.178 270.08 583.154 269.816 584.226 269.816C585.282 269.816 586.242 270.08 587.106 270.608C587.986 271.12 588.674 271.816 589.17 272.696C589.666 273.576 589.914 274.528 589.914 275.552C589.914 276.624 589.674 277.608 589.194 278.504C588.714 279.384 588.042 280.088 587.178 280.616C586.33 281.128 585.354 281.384 584.25 281.384ZM584.25 280.712C585.162 280.712 585.994 280.48 586.746 280.016C587.498 279.552 588.082 278.936 588.498 278.168C588.93 277.384 589.146 276.528 589.146 275.6C589.146 274.688 588.93 273.84 588.498 273.056C588.066 272.272 587.474 271.648 586.722 271.184C585.97 270.72 585.138 270.488 584.226 270.488C583.314 270.488 582.474 270.728 581.706 271.208C580.954 271.672 580.354 272.296 579.906 273.08C579.474 273.864 579.258 274.712 579.258 275.624C579.258 276.536 579.474 277.384 579.906 278.168C580.354 278.936 580.954 279.552 581.706 280.016C582.474 280.48 583.322 280.712 584.25 280.712ZM592.075 270.2H592.843V271.832C593.579 270.568 594.763 269.936 596.395 269.936C597.179 269.936 597.859 270.16 598.435 270.608C599.011 271.04 599.411 271.696 599.635 272.576C599.843 271.792 600.299 271.16 601.003 270.68C601.723 270.184 602.531 269.936 603.427 269.936C604.595 269.936 605.499 270.28 606.139 270.968C606.779 271.64 607.099 272.6 607.099 273.848V281H606.331V273.848C606.331 272.84 606.067 272.048 605.539 271.472C605.027 270.896 604.347 270.608 603.499 270.608C602.859 270.608 602.267 270.768 601.723 271.088C601.179 271.392 600.747 271.808 600.427 272.336C600.107 272.864 599.947 273.448 599.947 274.088V281H599.179V274.28C599.179 273.128 598.907 272.232 598.363 271.592C597.819 270.936 597.115 270.608 596.251 270.608C595.675 270.608 595.123 270.752 594.595 271.04C594.083 271.328 593.659 271.72 593.323 272.216C593.003 272.696 592.843 273.224 592.843 273.8V281H592.075V270.2Z" fill="#857F7F"/>
<path d="M410.216 428H411.008V445.304H416.576V446H410.216V428ZM419.534 432.728C419.31 432.728 419.11 432.648 418.934 432.488C418.774 432.328 418.694 432.128 418.694 431.888C418.694 431.664 418.774 431.472 418.934 431.312C419.11 431.152 419.31 431.072 419.534 431.072C419.758 431.072 419.95 431.152 420.11 431.312C420.286 431.472 420.374 431.664 420.374 431.888C420.374 432.128 420.286 432.328 420.11 432.488C419.95 432.648 419.758 432.728 419.534 432.728ZM419.15 435.2H419.918V446H419.15V435.2ZM432.736 435.2L427.432 446.312L422.104 435.2H422.944L427.432 444.56L431.896 435.2H432.736ZM435.307 432.728C435.083 432.728 434.883 432.648 434.707 432.488C434.547 432.328 434.467 432.128 434.467 431.888C434.467 431.664 434.547 431.472 434.707 431.312C434.883 431.152 435.083 431.072 435.307 431.072C435.531 431.072 435.723 431.152 435.883 431.312C436.059 431.472 436.147 431.664 436.147 431.888C436.147 432.128 436.059 432.328 435.883 432.488C435.723 432.648 435.531 432.728 435.307 432.728ZM434.923 435.2H435.691V446H434.923V435.2ZM439.27 435.2H440.038V437.6C440.39 436.8 440.99 436.16 441.838 435.68C442.686 435.184 443.622 434.936 444.646 434.936C445.974 434.936 447.022 435.36 447.79 436.208C448.574 437.04 448.966 438.208 448.966 439.712V446H448.198V439.712C448.198 438.416 447.878 437.408 447.238 436.688C446.614 435.968 445.734 435.608 444.598 435.608C443.766 435.608 442.998 435.8 442.294 436.184C441.606 436.552 441.054 437.064 440.638 437.72C440.238 438.376 440.038 439.12 440.038 439.952V446H439.27V435.2ZM457.204 450.992C456.292 450.992 455.404 450.784 454.54 450.368C453.676 449.952 453.004 449.408 452.524 448.736V447.632C452.94 448.4 453.588 449.04 454.468 449.552C455.364 450.064 456.276 450.32 457.204 450.32C458.74 450.32 459.924 449.864 460.756 448.952C461.588 448.056 462.004 446.736 462.004 444.992V443.384C461.572 444.248 460.892 444.952 459.964 445.496C459.052 446.024 458.092 446.288 457.084 446.288C456.06 446.288 455.108 446.032 454.228 445.52C453.348 445.008 452.652 444.32 452.14 443.456C451.628 442.576 451.372 441.632 451.372 440.624C451.372 439.616 451.628 438.68 452.14 437.816C452.652 436.936 453.348 436.24 454.228 435.728C455.108 435.216 456.06 434.96 457.084 434.96C458.14 434.96 459.116 435.224 460.012 435.752C460.908 436.28 461.572 436.992 462.004 437.888V435.2H462.772V444.992C462.772 446.96 462.292 448.448 461.332 449.456C460.388 450.48 459.012 450.992 457.204 450.992ZM457.132 445.616C458.012 445.616 458.828 445.392 459.58 444.944C460.332 444.48 460.924 443.872 461.356 443.12C461.804 442.352 462.028 441.52 462.028 440.624C462.028 439.728 461.804 438.904 461.356 438.152C460.924 437.384 460.332 436.776 459.58 436.328C458.828 435.864 458.012 435.632 457.132 435.632C456.236 435.632 455.404 435.864 454.636 436.328C453.884 436.776 453.276 437.384 452.812 438.152C452.364 438.904 452.14 439.728 452.14 440.624C452.14 441.52 452.364 442.352 452.812 443.12C453.276 443.872 453.884 444.48 454.636 444.944C455.404 445.392 456.236 445.616 457.132 445.616ZM471.459 428H472.491C474.363 428 475.803 428.496 476.811 429.488C477.835 430.48 478.347 431.896 478.347 433.736C478.347 434.792 478.091 435.76 477.579 436.64C477.083 437.52 476.403 438.216 475.539 438.728C474.675 439.224 473.723 439.472 472.683 439.472H472.515L478.707 446H477.675L472.227 440.288V446H471.459V428ZM472.659 438.776C473.571 438.776 474.403 438.552 475.155 438.104C475.907 437.656 476.499 437.056 476.931 436.304C477.363 435.536 477.579 434.688 477.579 433.76C477.579 432.144 477.139 430.896 476.259 430.016C475.395 429.136 474.155 428.696 472.539 428.696H472.227V438.776H472.659ZM486.125 446.384C485.037 446.384 484.053 446.12 483.173 445.592C482.293 445.048 481.605 444.336 481.109 443.456C480.613 442.56 480.365 441.592 480.365 440.552C480.365 439.528 480.613 438.576 481.109 437.696C481.621 436.816 482.309 436.12 483.173 435.608C484.053 435.08 485.029 434.816 486.101 434.816C487.157 434.816 488.117 435.08 488.981 435.608C489.861 436.12 490.549 436.816 491.045 437.696C491.541 438.576 491.789 439.528 491.789 440.552C491.789 441.624 491.549 442.608 491.069 443.504C490.589 444.384 489.917 445.088 489.053 445.616C488.205 446.128 487.229 446.384 486.125 446.384ZM486.125 445.712C487.037 445.712 487.869 445.48 488.621 445.016C489.373 444.552 489.957 443.936 490.373 443.168C490.805 442.384 491.021 441.528 491.021 440.6C491.021 439.688 490.805 438.84 490.373 438.056C489.941 437.272 489.349 436.648 488.597 436.184C487.845 435.72 487.013 435.488 486.101 435.488C485.189 435.488 484.349 435.728 483.581 436.208C482.829 436.672 482.229 437.296 481.781 438.08C481.349 438.864 481.133 439.712 481.133 440.624C481.133 441.536 481.349 442.384 481.781 443.168C482.229 443.936 482.829 444.552 483.581 445.016C484.349 445.48 485.197 445.712 486.125 445.712ZM499.32 446.384C498.232 446.384 497.248 446.12 496.368 445.592C495.488 445.048 494.8 444.336 494.304 443.456C493.808 442.56 493.56 441.592 493.56 440.552C493.56 439.528 493.808 438.576 494.304 437.696C494.816 436.816 495.504 436.12 496.368 435.608C497.248 435.08 498.224 434.816 499.296 434.816C500.352 434.816 501.312 435.08 502.176 435.608C503.056 436.12 503.744 436.816 504.24 437.696C504.736 438.576 504.984 439.528 504.984 440.552C504.984 441.624 504.744 442.608 504.264 443.504C503.784 444.384 503.112 445.088 502.248 445.616C501.4 446.128 500.424 446.384 499.32 446.384ZM499.32 445.712C500.232 445.712 501.064 445.48 501.816 445.016C502.568 444.552 503.152 443.936 503.568 443.168C504 442.384 504.216 441.528 504.216 440.6C504.216 439.688 504 438.84 503.568 438.056C503.136 437.272 502.544 436.648 501.792 436.184C501.04 435.72 500.208 435.488 499.296 435.488C498.384 435.488 497.544 435.728 496.776 436.208C496.024 436.672 495.424 437.296 494.976 438.08C494.544 438.864 494.328 439.712 494.328 440.624C494.328 441.536 494.544 442.384 494.976 443.168C495.424 443.936 496.024 444.552 496.776 445.016C497.544 445.48 498.392 445.712 499.32 445.712ZM507.145 435.2H507.913V436.832C508.649 435.568 509.833 434.936 511.465 434.936C512.249 434.936 512.929 435.16 513.505 435.608C514.081 436.04 514.481 436.696 514.705 437.576C514.913 436.792 515.369 436.16 516.073 435.68C516.793 435.184 517.601 434.936 518.497 434.936C519.665 434.936 520.569 435.28 521.209 435.968C521.849 436.64 522.169 437.6 522.169 438.848V446H521.401V438.848C521.401 437.84 521.137 437.048 520.609 436.472C520.097 435.896 519.417 435.608 518.569 435.608C517.929 435.608 517.337 435.768 516.793 436.088C516.249 436.392 515.817 436.808 515.497 437.336C515.177 437.864 515.017 438.448 515.017 439.088V446H514.249V439.28C514.249 438.128 513.977 437.232 513.433 436.592C512.889 435.936 512.185 435.608 511.321 435.608C510.745 435.608 510.193 435.752 509.665 436.04C509.153 436.328 508.729 436.72 508.393 437.216C508.073 437.696 507.913 438.224 507.913 438.8V446H507.145V435.2Z" fill="#857F7F"/>
<path d="M447.828 598.336C445.828 598.336 444.276 597.512 443.172 595.864V594.568C443.604 595.528 444.228 596.28 445.044 596.824C445.876 597.368 446.868 597.64 448.02 597.64C448.82 597.64 449.556 597.464 450.228 597.112C450.916 596.76 451.46 596.264 451.86 595.624C452.26 594.984 452.46 594.248 452.46 593.416C452.46 592.664 452.332 592.016 452.076 591.472C451.82 590.928 451.396 590.408 450.804 589.912C450.212 589.4 449.356 588.8 448.236 588.112L447.468 587.632C446.764 587.2 446.196 586.816 445.764 586.48C445.332 586.144 444.956 585.752 444.636 585.304C444.22 584.68 444.012 583.96 444.012 583.144C444.012 582.056 444.364 581.208 445.068 580.6C445.772 579.992 446.668 579.688 447.756 579.688C449.228 579.688 450.396 580.232 451.26 581.32V582.544C450.892 581.872 450.388 581.344 449.748 580.96C449.108 580.576 448.404 580.384 447.636 580.384C446.836 580.384 446.164 580.632 445.62 581.128C445.076 581.624 444.804 582.288 444.804 583.12C444.804 583.936 445.052 584.64 445.548 585.232C446.06 585.808 446.916 586.44 448.116 587.128C449.588 587.992 450.732 588.776 451.548 589.48C452.124 590.008 452.54 590.592 452.796 591.232C453.068 591.872 453.204 592.584 453.204 593.368C453.204 594.36 452.972 595.232 452.508 595.984C452.044 596.736 451.404 597.32 450.588 597.736C449.772 598.136 448.852 598.336 447.828 598.336ZM459.587 598.144C458.403 598.144 457.419 597.784 456.635 597.064C455.867 596.344 455.483 595.352 455.483 594.088V582.856H456.251V587.2H459.563V587.872H456.251V594.088C456.251 595.144 456.563 595.976 457.187 596.584C457.827 597.176 458.627 597.472 459.587 597.472V598.144ZM466.358 598.264C464.838 598.264 463.662 597.848 462.83 597.016C462.014 596.184 461.606 595.008 461.606 593.488V587.2H462.374V593.488C462.374 594.8 462.718 595.816 463.406 596.536C464.11 597.24 465.094 597.592 466.358 597.592C467.126 597.592 467.83 597.424 468.47 597.088C469.11 596.736 469.614 596.248 469.982 595.624C470.35 595 470.534 594.288 470.534 593.488V587.2H471.302V598H470.534V595.984C470.166 596.656 469.614 597.208 468.878 597.64C468.142 598.056 467.302 598.264 466.358 598.264ZM479.42 598.264C478.38 598.264 477.42 598.008 476.54 597.496C475.676 596.984 474.988 596.296 474.476 595.432C473.964 594.568 473.708 593.624 473.708 592.6C473.708 591.576 473.964 590.632 474.476 589.768C474.988 588.904 475.676 588.216 476.54 587.704C477.42 587.192 478.38 586.936 479.42 586.936C480.428 586.936 481.388 587.208 482.3 587.752C483.212 588.28 483.884 588.976 484.316 589.84V580H485.084V598H484.316V595.384C483.836 596.248 483.14 596.944 482.228 597.472C481.332 598 480.396 598.264 479.42 598.264ZM479.396 597.592C480.276 597.592 481.092 597.368 481.844 596.92C482.612 596.456 483.22 595.848 483.668 595.096C484.132 594.328 484.364 593.504 484.364 592.624C484.364 591.744 484.132 590.92 483.668 590.152C483.22 589.384 482.612 588.768 481.844 588.304C481.092 587.84 480.276 587.608 479.396 587.608C478.516 587.608 477.7 587.84 476.948 588.304C476.196 588.752 475.596 589.36 475.148 590.128C474.7 590.896 474.476 591.72 474.476 592.6C474.476 593.496 474.692 594.328 475.124 595.096C475.572 595.848 476.172 596.456 476.924 596.92C477.692 597.368 478.516 597.592 479.396 597.592ZM492.578 602.776C490.786 602.776 489.37 602.136 488.33 600.856V599.632C488.858 600.464 489.458 601.08 490.13 601.48C490.802 601.896 491.586 602.104 492.482 602.104C493.394 602.104 494.17 601.912 494.81 601.528C495.466 601.144 495.962 600.616 496.298 599.944C496.634 599.288 496.802 598.552 496.802 597.736V595.912C496.418 596.664 495.834 597.248 495.05 597.664C494.282 598.064 493.442 598.264 492.53 598.264C491.618 598.264 490.81 598.064 490.106 597.664C489.402 597.264 488.85 596.704 488.45 595.984C488.066 595.264 487.874 594.432 487.874 593.488V587.2H488.642V593.488C488.642 594.352 488.818 595.096 489.17 595.72C489.538 596.328 490.018 596.792 490.61 597.112C491.202 597.432 491.85 597.592 492.554 597.592C493.322 597.592 494.034 597.408 494.69 597.04C495.346 596.656 495.858 596.152 496.226 595.528C496.61 594.888 496.802 594.208 496.802 593.488V587.2H497.57V597.664C497.57 598.624 497.37 599.488 496.97 600.256C496.586 601.04 496.018 601.656 495.266 602.104C494.514 602.552 493.618 602.776 492.578 602.776Z" fill="#857F7F"/>
<path d="M100.898 451.336C98.8984 451.336 97.3464 450.512 96.2424 448.864V447.568C96.6744 448.528 97.2984 449.28 98.1144 449.824C98.9464 450.368 99.9384 450.64 101.09 450.64C101.89 450.64 102.626 450.464 103.298 450.112C103.986 449.76 104.53 449.264 104.93 448.624C105.33 447.984 105.53 447.248 105.53 446.416C105.53 445.664 105.402 445.016 105.146 444.472C104.89 443.928 104.466 443.408 103.874 442.912C103.282 442.4 102.426 441.8 101.306 441.112L100.538 440.632C99.8344 440.2 99.2664 439.816 98.8344 439.48C98.4024 439.144 98.0264 438.752 97.7064 438.304C97.2904 437.68 97.0824 436.96 97.0824 436.144C97.0824 435.056 97.4344 434.208 98.1384 433.6C98.8424 432.992 99.7384 432.688 100.826 432.688C102.298 432.688 103.466 433.232 104.33 434.32V435.544C103.962 434.872 103.458 434.344 102.818 433.96C102.178 433.576 101.474 433.384 100.706 433.384C99.9064 433.384 99.2344 433.632 98.6904 434.128C98.1464 434.624 97.8744 435.288 97.8744 436.12C97.8744 436.936 98.1224 437.64 98.6184 438.232C99.1304 438.808 99.9864 439.44 101.186 440.128C102.658 440.992 103.802 441.776 104.618 442.48C105.194 443.008 105.61 443.592 105.866 444.232C106.138 444.872 106.274 445.584 106.274 446.368C106.274 447.36 106.042 448.232 105.578 448.984C105.114 449.736 104.474 450.32 103.658 450.736C102.842 451.136 101.922 451.336 100.898 451.336ZM117.505 451.264L115.057 446.032L112.585 451.264L107.401 440.2H108.193L112.609 449.584L114.697 445.192L112.393 440.248H113.161L115.081 444.424L117.049 440.2H117.817L115.465 445.216L117.505 449.608L121.849 440.224H122.617L117.505 451.264ZM125.175 437.728C124.951 437.728 124.751 437.648 124.575 437.488C124.415 437.328 124.335 437.128 124.335 436.888C124.335 436.664 124.415 436.472 124.575 436.312C124.751 436.152 124.951 436.072 125.175 436.072C125.399 436.072 125.591 436.152 125.751 436.312C125.927 436.472 126.015 436.664 126.015 436.888C126.015 437.128 125.927 437.328 125.751 437.488C125.591 437.648 125.399 437.728 125.175 437.728ZM124.791 440.2H125.559V451H124.791V440.2ZM129.137 440.2H129.905V441.832C130.641 440.568 131.825 439.936 133.457 439.936C134.241 439.936 134.921 440.16 135.497 440.608C136.073 441.04 136.473 441.696 136.697 442.576C136.905 441.792 137.361 441.16 138.065 440.68C138.785 440.184 139.593 439.936 140.489 439.936C141.657 439.936 142.561 440.28 143.201 440.968C143.841 441.64 144.161 442.6 144.161 443.848V451H143.393V443.848C143.393 442.84 143.129 442.048 142.601 441.472C142.089 440.896 141.409 440.608 140.561 440.608C139.921 440.608 139.329 440.768 138.785 441.088C138.241 441.392 137.809 441.808 137.489 442.336C137.169 442.864 137.009 443.448 137.009 444.088V451H136.241V444.28C136.241 443.128 135.969 442.232 135.425 441.592C134.881 440.936 134.177 440.608 133.313 440.608C132.737 440.608 132.185 440.752 131.657 441.04C131.145 441.328 130.721 441.72 130.385 442.216C130.065 442.696 129.905 443.224 129.905 443.8V451H129.137V440.2ZM147.184 440.2H147.952V441.832C148.688 440.568 149.872 439.936 151.504 439.936C152.288 439.936 152.968 440.16 153.544 440.608C154.12 441.04 154.52 441.696 154.744 442.576C154.952 441.792 155.408 441.16 156.112 440.68C156.832 440.184 157.64 439.936 158.536 439.936C159.704 439.936 160.608 440.28 161.248 440.968C161.888 441.64 162.208 442.6 162.208 443.848V451H161.44V443.848C161.44 442.84 161.176 442.048 160.648 441.472C160.136 440.896 159.456 440.608 158.608 440.608C157.968 440.608 157.376 440.768 156.832 441.088C156.288 441.392 155.856 441.808 155.536 442.336C155.216 442.864 155.056 443.448 155.056 444.088V451H154.288V444.28C154.288 443.128 154.016 442.232 153.472 441.592C152.928 440.936 152.224 440.608 151.36 440.608C150.784 440.608 150.232 440.752 149.704 441.04C149.192 441.328 148.768 441.72 148.432 442.216C148.112 442.696 147.952 443.224 147.952 443.8V451H147.184V440.2ZM166.167 437.728C165.943 437.728 165.743 437.648 165.567 437.488C165.407 437.328 165.327 437.128 165.327 436.888C165.327 436.664 165.407 436.472 165.567 436.312C165.743 436.152 165.943 436.072 166.167 436.072C166.391 436.072 166.583 436.152 166.743 436.312C166.919 436.472 167.007 436.664 167.007 436.888C167.007 437.128 166.919 437.328 166.743 437.488C166.583 437.648 166.391 437.728 166.167 437.728ZM165.783 440.2H166.551V451H165.783V440.2ZM170.129 440.2H170.897V442.6C171.249 441.8 171.849 441.16 172.697 440.68C173.545 440.184 174.481 439.936 175.505 439.936C176.833 439.936 177.881 440.36 178.649 441.208C179.433 442.04 179.825 443.208 179.825 444.712V451H179.057V444.712C179.057 443.416 178.737 442.408 178.097 441.688C177.473 440.968 176.593 440.608 175.457 440.608C174.625 440.608 173.857 440.8 173.153 441.184C172.465 441.552 171.913 442.064 171.497 442.72C171.097 443.376 170.897 444.12 170.897 444.952V451H170.129V440.2ZM188.064 455.992C187.152 455.992 186.264 455.784 185.4 455.368C184.536 454.952 183.864 454.408 183.384 453.736V452.632C183.8 453.4 184.448 454.04 185.328 454.552C186.224 455.064 187.136 455.32 188.064 455.32C189.6 455.32 190.784 454.864 191.616 453.952C192.448 453.056 192.864 451.736 192.864 449.992V448.384C192.432 449.248 191.752 449.952 190.824 450.496C189.912 451.024 188.952 451.288 187.944 451.288C186.92 451.288 185.968 451.032 185.088 450.52C184.208 450.008 183.512 449.32 183 448.456C182.488 447.576 182.232 446.632 182.232 445.624C182.232 444.616 182.488 443.68 183 442.816C183.512 441.936 184.208 441.24 185.088 440.728C185.968 440.216 186.92 439.96 187.944 439.96C189 439.96 189.976 440.224 190.872 440.752C191.768 441.28 192.432 441.992 192.864 442.888V440.2H193.632V449.992C193.632 451.96 193.152 453.448 192.192 454.456C191.248 455.48 189.872 455.992 188.064 455.992ZM187.992 450.616C188.872 450.616 189.688 450.392 190.44 449.944C191.192 449.48 191.784 448.872 192.216 448.12C192.664 447.352 192.888 446.52 192.888 445.624C192.888 444.728 192.664 443.904 192.216 443.152C191.784 442.384 191.192 441.776 190.44 441.328C189.688 440.864 188.872 440.632 187.992 440.632C187.096 440.632 186.264 440.864 185.496 441.328C184.744 441.776 184.136 442.384 183.672 443.152C183.224 443.904 183 444.728 183 445.624C183 446.52 183.224 447.352 183.672 448.12C184.136 448.872 184.744 449.48 185.496 449.944C186.264 450.392 187.096 450.616 187.992 450.616ZM202.294 433H203.086C204.974 433 206.446 433.504 207.502 434.512C208.558 435.504 209.086 436.84 209.086 438.52C209.086 439.688 208.83 440.728 208.318 441.64C207.806 442.536 207.11 443.232 206.23 443.728C205.35 444.208 204.366 444.448 203.278 444.448H203.086V451H202.294V433ZM203.326 443.752C204.782 443.752 205.974 443.304 206.902 442.408C207.83 441.496 208.294 440.216 208.294 438.568C208.294 437 207.854 435.8 206.974 434.968C206.11 434.12 204.878 433.696 203.278 433.696H203.086V443.752H203.326ZM215.437 451.384C214.349 451.384 213.365 451.12 212.485 450.592C211.605 450.048 210.917 449.336 210.421 448.456C209.925 447.56 209.677 446.592 209.677 445.552C209.677 444.528 209.925 443.576 210.421 442.696C210.933 441.816 211.621 441.12 212.485 440.608C213.365 440.08 214.341 439.816 215.413 439.816C216.469 439.816 217.429 440.08 218.293 440.608C219.173 441.12 219.861 441.816 220.357 442.696C220.853 443.576 221.101 444.528 221.101 445.552C221.101 446.624 220.861 447.608 220.381 448.504C219.901 449.384 219.229 450.088 218.365 450.616C217.517 451.128 216.541 451.384 215.437 451.384ZM215.437 450.712C216.349 450.712 217.181 450.48 217.933 450.016C218.685 449.552 219.269 448.936 219.685 448.168C220.117 447.384 220.333 446.528 220.333 445.6C220.333 444.688 220.117 443.84 219.685 443.056C219.253 442.272 218.661 441.648 217.909 441.184C217.157 440.72 216.325 440.488 215.413 440.488C214.501 440.488 213.661 440.728 212.893 441.208C212.141 441.672 211.541 442.296 211.093 443.08C210.661 443.864 210.445 444.712 210.445 445.624C210.445 446.536 210.661 447.384 211.093 448.168C211.541 448.936 212.141 449.552 212.893 450.016C213.661 450.48 214.509 450.712 215.437 450.712ZM228.632 451.384C227.544 451.384 226.56 451.12 225.68 450.592C224.8 450.048 224.112 449.336 223.616 448.456C223.12 447.56 222.872 446.592 222.872 445.552C222.872 444.528 223.12 443.576 223.616 442.696C224.128 441.816 224.816 441.12 225.68 440.608C226.56 440.08 227.536 439.816 228.608 439.816C229.664 439.816 230.624 440.08 231.488 440.608C232.368 441.12 233.056 441.816 233.552 442.696C234.048 443.576 234.296 444.528 234.296 445.552C234.296 446.624 234.056 447.608 233.576 448.504C233.096 449.384 232.424 450.088 231.56 450.616C230.712 451.128 229.736 451.384 228.632 451.384ZM228.632 450.712C229.544 450.712 230.376 450.48 231.128 450.016C231.88 449.552 232.464 448.936 232.88 448.168C233.312 447.384 233.528 446.528 233.528 445.6C233.528 444.688 233.312 443.84 232.88 443.056C232.448 442.272 231.856 441.648 231.104 441.184C230.352 440.72 229.52 440.488 228.608 440.488C227.696 440.488 226.856 440.728 226.088 441.208C225.336 441.672 224.736 442.296 224.288 443.08C223.856 443.864 223.64 444.712 223.64 445.624C223.64 446.536 223.856 447.384 224.288 448.168C224.736 448.936 225.336 449.552 226.088 450.016C226.856 450.48 227.704 450.712 228.632 450.712ZM240.796 451.216C240.044 451.216 239.356 451.048 238.732 450.712C238.108 450.36 237.612 449.872 237.244 449.248C236.876 448.624 236.692 447.928 236.692 447.16V433H237.46V447.16C237.46 447.8 237.604 448.376 237.892 448.888C238.196 449.4 238.604 449.808 239.116 450.112C239.628 450.4 240.188 450.544 240.796 450.544V451.216Z" fill="#857F7F"/>
<path d="M195.025 146H201.481V146.696H195.817V156.488H200.545V157.184H195.817V163.304H201.481V164H195.025V146ZM203.617 153.2H204.385V155.6C204.737 154.8 205.337 154.16 206.185 153.68C207.033 153.184 207.969 152.936 208.993 152.936C210.321 152.936 211.369 153.36 212.137 154.208C212.921 155.04 213.313 156.208 213.313 157.712V164H212.545V157.712C212.545 156.416 212.225 155.408 211.585 154.688C210.961 153.968 210.081 153.608 208.945 153.608C208.113 153.608 207.345 153.8 206.641 154.184C205.953 154.552 205.401 155.064 204.985 155.72C204.585 156.376 204.385 157.12 204.385 157.952V164H203.617V153.2ZM221.432 164.312C220.392 164.312 219.432 164.064 218.552 163.568C217.688 163.072 217 162.392 216.488 161.528C215.976 160.664 215.72 159.688 215.72 158.6C215.72 157.592 215.976 156.664 216.488 155.816C217 154.952 217.696 154.264 218.576 153.752C219.472 153.24 220.456 152.984 221.528 152.984C222.424 152.984 223.192 153.128 223.832 153.416C224.472 153.704 225.096 154.152 225.704 154.76V156.056C225.176 155.272 224.584 154.68 223.928 154.28C223.288 153.864 222.488 153.656 221.528 153.656C220.648 153.656 219.816 153.888 219.032 154.352C218.264 154.8 217.648 155.408 217.184 156.176C216.72 156.944 216.488 157.768 216.488 158.648C216.488 159.608 216.712 160.472 217.16 161.24C217.608 161.992 218.208 162.584 218.96 163.016C219.728 163.432 220.552 163.64 221.432 163.64C223.224 163.64 224.648 162.832 225.704 161.216V162.512C225.128 163.12 224.488 163.576 223.784 163.88C223.096 164.168 222.312 164.312 221.432 164.312ZM231.932 164.216C231.18 164.216 230.492 164.048 229.868 163.712C229.244 163.36 228.748 162.872 228.38 162.248C228.012 161.624 227.828 160.928 227.828 160.16V146H228.596V160.16C228.596 160.8 228.74 161.376 229.028 161.888C229.332 162.4 229.74 162.808 230.252 163.112C230.764 163.4 231.324 163.544 231.932 163.544V164.216ZM238.824 164.384C237.736 164.384 236.752 164.12 235.872 163.592C234.992 163.048 234.304 162.336 233.808 161.456C233.312 160.56 233.064 159.592 233.064 158.552C233.064 157.528 233.312 156.576 233.808 155.696C234.32 154.816 235.008 154.12 235.872 153.608C236.752 153.08 237.728 152.816 238.8 152.816C239.856 152.816 240.816 153.08 241.68 153.608C242.56 154.12 243.248 154.816 243.744 155.696C244.24 156.576 244.488 157.528 244.488 158.552C244.488 159.624 244.248 160.608 243.768 161.504C243.288 162.384 242.616 163.088 241.752 163.616C240.904 164.128 239.928 164.384 238.824 164.384ZM238.824 163.712C239.736 163.712 240.568 163.48 241.32 163.016C242.072 162.552 242.656 161.936 243.072 161.168C243.504 160.384 243.72 159.528 243.72 158.6C243.72 157.688 243.504 156.84 243.072 156.056C242.64 155.272 242.048 154.648 241.296 154.184C240.544 153.72 239.712 153.488 238.8 153.488C237.888 153.488 237.048 153.728 236.28 154.208C235.528 154.672 234.928 155.296 234.48 156.08C234.048 156.864 233.832 157.712 233.832 158.624C233.832 159.536 234.048 160.384 234.48 161.168C234.928 161.936 235.528 162.552 236.28 163.016C237.048 163.48 237.896 163.712 238.824 163.712ZM249.499 164.264C248.731 164.264 248.051 164.136 247.459 163.88C246.867 163.608 246.443 163.264 246.187 162.848V161.576C246.491 162.264 246.907 162.776 247.435 163.112C247.963 163.432 248.635 163.592 249.451 163.592C250.235 163.592 250.867 163.352 251.347 162.872C251.827 162.376 252.067 161.744 252.067 160.976C252.067 160.32 251.931 159.816 251.659 159.464C251.387 159.096 250.947 158.728 250.339 158.36L249.427 157.832C248.771 157.432 248.275 157.12 247.939 156.896C247.619 156.656 247.363 156.392 247.171 156.104C246.979 155.8 246.883 155.448 246.883 155.048C246.883 154.408 247.107 153.896 247.555 153.512C248.003 153.128 248.587 152.936 249.307 152.936C250.187 152.936 250.923 153.136 251.515 153.536V154.592C251.019 153.936 250.307 153.608 249.379 153.608C248.867 153.608 248.451 153.736 248.131 153.992C247.811 154.248 247.651 154.576 247.651 154.976C247.651 155.328 247.747 155.64 247.939 155.912C248.131 156.168 248.395 156.408 248.731 156.632C249.083 156.856 249.659 157.192 250.459 157.64C251.275 158.104 251.875 158.584 252.259 159.08C252.643 159.56 252.835 160.192 252.835 160.976C252.835 161.968 252.507 162.768 251.851 163.376C251.211 163.968 250.427 164.264 249.499 164.264ZM260.483 163.616C261.315 163.616 262.107 163.4 262.859 162.968C263.611 162.536 264.235 161.944 264.731 161.192V162.416C264.139 163.072 263.491 163.552 262.787 163.856C262.083 164.144 261.283 164.288 260.387 164.288C259.395 164.288 258.459 164.024 257.579 163.496C256.715 162.968 256.019 162.264 255.491 161.384C254.979 160.504 254.723 159.568 254.723 158.576C254.723 157.504 254.979 156.544 255.491 155.696C256.003 154.832 256.699 154.16 257.579 153.68C258.475 153.2 259.467 152.96 260.555 152.96C262.219 152.96 263.635 153.616 264.803 154.928L257.267 162.368C257.795 162.8 258.307 163.12 258.803 163.328C259.299 163.52 259.859 163.616 260.483 163.616ZM255.491 158.504C255.491 159.832 255.931 160.968 256.811 161.912L263.843 154.928C263.315 154.464 262.803 154.136 262.307 153.944C261.811 153.736 261.219 153.632 260.531 153.632C259.555 153.632 258.683 153.848 257.915 154.28C257.163 154.696 256.571 155.272 256.139 156.008C255.707 156.744 255.491 157.576 255.491 158.504ZM272.291 164.264C271.251 164.264 270.291 164.008 269.411 163.496C268.547 162.984 267.859 162.296 267.347 161.432C266.835 160.568 266.579 159.624 266.579 158.6C266.579 157.576 266.835 156.632 267.347 155.768C267.859 154.904 268.547 154.216 269.411 153.704C270.291 153.192 271.251 152.936 272.291 152.936C273.299 152.936 274.259 153.208 275.171 153.752C276.083 154.28 276.755 154.976 277.187 155.84V146H277.955V164H277.187V161.384C276.707 162.248 276.011 162.944 275.099 163.472C274.203 164 273.267 164.264 272.291 164.264ZM272.267 163.592C273.147 163.592 273.963 163.368 274.715 162.92C275.483 162.456 276.091 161.848 276.539 161.096C277.003 160.328 277.235 159.504 277.235 158.624C277.235 157.744 277.003 156.92 276.539 156.152C276.091 155.384 275.483 154.768 274.715 154.304C273.963 153.84 273.147 153.608 272.267 153.608C271.387 153.608 270.571 153.84 269.819 154.304C269.067 154.752 268.467 155.36 268.019 156.128C267.571 156.896 267.347 157.72 267.347 158.6C267.347 159.496 267.563 160.328 267.995 161.096C268.443 161.848 269.043 162.456 269.795 162.92C270.563 163.368 271.387 163.592 272.267 163.592ZM286.618 146H287.41C289.298 146 290.77 146.504 291.826 147.512C292.882 148.504 293.41 149.84 293.41 151.52C293.41 152.688 293.154 153.728 292.642 154.64C292.13 155.536 291.434 156.232 290.554 156.728C289.674 157.208 288.69 157.448 287.602 157.448H287.41V164H286.618V146ZM287.65 156.752C289.106 156.752 290.298 156.304 291.226 155.408C292.154 154.496 292.618 153.216 292.618 151.568C292.618 150 292.178 148.8 291.298 147.968C290.434 147.12 289.202 146.696 287.602 146.696H287.41V156.752H287.65ZM299.713 164.264C298.689 164.264 297.737 164.008 296.857 163.496C295.977 162.984 295.281 162.296 294.769 161.432C294.257 160.552 294.001 159.608 294.001 158.6C294.001 157.592 294.257 156.656 294.769 155.792C295.281 154.912 295.977 154.216 296.857 153.704C297.737 153.192 298.689 152.936 299.713 152.936C300.753 152.936 301.737 153.216 302.665 153.776C303.593 154.32 304.241 155.032 304.609 155.912V153.2H305.377V164H304.609V161.312C304.177 162.208 303.505 162.928 302.593 163.472C301.697 164 300.737 164.264 299.713 164.264ZM299.761 163.592C300.641 163.592 301.457 163.368 302.209 162.92C302.961 162.456 303.553 161.848 303.985 161.096C304.433 160.328 304.657 159.496 304.657 158.6C304.657 157.72 304.433 156.896 303.985 156.128C303.537 155.36 302.937 154.752 302.185 154.304C301.433 153.84 300.617 153.608 299.737 153.608C298.857 153.608 298.033 153.84 297.265 154.304C296.513 154.768 295.905 155.384 295.441 156.152C294.993 156.92 294.769 157.744 294.769 158.624C294.769 159.504 294.993 160.328 295.441 161.096C295.905 161.848 296.521 162.456 297.289 162.92C298.057 163.368 298.881 163.592 299.761 163.592ZM312.271 164.144C311.087 164.144 310.103 163.784 309.319 163.064C308.551 162.344 308.167 161.352 308.167 160.088V148.856H308.935V153.2H312.247V153.872H308.935V160.088C308.935 161.144 309.247 161.976 309.871 162.584C310.511 163.176 311.311 163.472 312.271 163.472V164.144ZM315.225 150.728C315.001 150.728 314.801 150.648 314.625 150.488C314.465 150.328 314.385 150.128 314.385 149.888C314.385 149.664 314.465 149.472 314.625 149.312C314.801 149.152 315.001 149.072 315.225 149.072C315.449 149.072 315.641 149.152 315.801 149.312C315.977 149.472 316.065 149.664 316.065 149.888C316.065 150.128 315.977 150.328 315.801 150.488C315.641 150.648 315.449 150.728 315.225 150.728ZM314.841 153.2H315.609V164H314.841V153.2ZM324.324 164.384C323.236 164.384 322.252 164.12 321.372 163.592C320.492 163.048 319.804 162.336 319.308 161.456C318.812 160.56 318.564 159.592 318.564 158.552C318.564 157.528 318.812 156.576 319.308 155.696C319.82 154.816 320.508 154.12 321.372 153.608C322.252 153.08 323.228 152.816 324.3 152.816C325.356 152.816 326.316 153.08 327.18 153.608C328.06 154.12 328.748 154.816 329.244 155.696C329.74 156.576 329.988 157.528 329.988 158.552C329.988 159.624 329.748 160.608 329.268 161.504C328.788 162.384 328.116 163.088 327.252 163.616C326.404 164.128 325.428 164.384 324.324 164.384ZM324.324 163.712C325.236 163.712 326.068 163.48 326.82 163.016C327.572 162.552 328.156 161.936 328.572 161.168C329.004 160.384 329.22 159.528 329.22 158.6C329.22 157.688 329.004 156.84 328.572 156.056C328.14 155.272 327.548 154.648 326.796 154.184C326.044 153.72 325.212 153.488 324.3 153.488C323.388 153.488 322.548 153.728 321.78 154.208C321.028 154.672 320.428 155.296 319.98 156.08C319.548 156.864 319.332 157.712 319.332 158.624C319.332 159.536 319.548 160.384 319.98 161.168C320.428 161.936 321.028 162.552 321.78 163.016C322.548 163.48 323.396 163.712 324.324 163.712Z" fill="#857F7F"/>
</svg>
