<svg width="734" height="428" viewBox="0 0 734 428" fill="none" xmlns="http://www.w3.org/2000/svg">
<path d="M247.549 348.715V238.37L478.362 221.494M577.388 357.662V257.755H582.6V253.282H577.388V230.169H582.6V227.932L482.085 221.222L478.362 221.494M573.665 357.662V257.755L531.97 255.519V362.135M528.247 362.135V255.519L508.889 254.027V365.118M505.166 365.118V254.027L482.085 253.282V367.354M442.623 365.118V254.303L470.916 253.282V367.354M438.156 365.118V254.474L413.585 255.41M478.362 221.494V367.354M254.25 348.715V261.483L269.142 260.916V350.952M270.815 350.952V260.852L289.245 260.149V353.188M291.478 353.188V260.064L310.837 259.326M310.837 259.326L310.092 354.68M310.837 259.326L313.07 259.241M313.07 259.241V354.68M313.07 259.241L333.918 258.447M333.918 258.447V356.916M333.918 258.447L336.896 258.333M336.896 258.333V356.916M336.896 258.333L382.314 256.602M382.314 256.602V359.899M382.314 256.602L386.781 256.432M386.781 256.432V359.899M386.781 256.432L409.863 255.552M409.863 255.552L409.118 361.39M409.863 255.552L413.585 255.41M413.585 255.41V361.39M630.251 380.775V225.696L721.832 235.388M51.7312 352.443L78.5352 350.952V246.572L50.9866 245.081V351.697M146.29 245.081L36.0955 240.607M110.562 247.317L112.04 349.461L83.0025 350.952V246.572L110.562 247.317ZM110.562 247.317L110.551 246.572M116.508 246.572V247.317M116.508 247.317V348.715L141.078 347.224L139.589 248.808L116.508 247.317ZM291.478 427L-37.6156 371.082L-122.495 376.301M291.478 427V421.781M291.478 427L694.283 375.556M-36.1265 368.1L290.734 421.781L604.192 382.266V184.689M604.192 184.689L215.534 227.187M604.192 184.689L733 204.82M604.192 184.689V178.725M215.534 227.187V221.968M215.534 227.187L214.838 342.75M604.192 134.736L215.534 192.145V221.968M604.192 134.736L669.713 148.156M604.192 134.736V178.725M604.192 134.736L582.6 137.718V39.3335M604.192 134.736L621.317 137.718V66.1433L679.392 84.037V116.097M604.192 178.725L733 199.601M604.192 178.725L215.534 221.968M578.132 49.7407V39.3027M578.132 49.7407L199.153 136.227M578.132 49.7407H581.111V40.7939L582.6 39.3335M578.132 39.3027L184.262 133.99M578.132 39.3027L653.332 -36L715.875 84.037V94.475H713.642V87.0193L653.332 -30.0354L582.6 39.3335M184.262 133.99L175.327 133.245M184.262 133.99L199.153 136.227M175.327 133.245V108.641L182.028 110.132L183.518 104.167L120.23 43.0306L-156 -12.8873M175.327 133.245V142.274M-137.386 48.2496L-102.392 53.4686L-35.3819 64.6522V68.38H-37.6156M-37.6156 68.38L-132.174 53.4686M-37.6156 68.38V79.9677M-37.6156 79.9677V80.3092L-132.919 65.3977L-37.6156 79.9677ZM-37.6156 79.9677L-35.3819 80.3092V84.7826M-35.3819 84.7826L-135.897 69.8712M-35.3819 84.7826L-42.8275 87.7649V193.925M-42.8275 193.925V194.382L-144.832 187.671L-42.8275 193.925ZM-42.8275 193.925L-35.3819 194.382V199.601L-37.6156 199.476M-37.6156 199.476L-129.196 194.382M-37.6156 199.476V230.915M-37.6156 230.915H-35.3819V234.643L-42.8275 234.366M-37.6156 230.915L-123.24 227.187M-42.8275 234.366L-135.897 230.915M-42.8275 234.366V345.733H-35.3819M-35.3819 345.733L-149.299 350.206M-35.3819 345.733V350.206L-37.6156 350.288M-37.6156 350.288L-137.386 353.934M-37.6156 350.288V366.609M-37.6156 366.609V371.828M-37.6156 366.609L-4.85511 365.118M-4.85511 365.118L15.2479 368.845M-4.85511 365.118V204.074H-7.08877M-7.08877 204.074L15.2479 201.092M-7.08877 204.074V199.601L15.2479 195.873M15.2479 201.092L187.24 213.767M15.2479 201.092V195.873M15.2479 201.092V368.845M187.24 213.767H188.729V209.293L15.2479 195.873M187.24 213.767V344.242M170.116 242.844L35.3509 236.879V245.081M170.116 242.844V359.153M170.116 242.844L147.034 245.081V357.662M170.116 359.153L147.034 357.662M170.116 359.153L187.24 357.662V344.242M144.056 248.063V350.288L50.9866 355.425L35.3509 356.171M147.034 357.662L35.3509 364.372M35.3509 356.171V351.697M35.3509 356.171V364.372M199.153 136.227L208.088 137.718L211.811 138.464V342.75M226.702 351.697L227.446 239.862L582.6 209.293V357.662M226.702 351.697L214.789 350.952L214.838 342.75M226.702 351.697L250.528 350.206L478.362 368.1L582.6 357.662M226.702 351.697L582.6 380.029V357.662M208.088 364.372L429.966 386.739L393.482 390.607M208.088 364.372L88.959 371.082L123.209 375.726M208.088 364.372V371.082M393.482 390.607L303.391 400.159L123.209 375.726M393.482 390.607L208.088 371.082M208.088 371.082L123.209 375.726M674.18 94.475L628.762 79.5636V85.5282M628.762 85.5282L668.224 97.4573V122.061M628.762 85.5282V87.7649M665.245 136.227V98.9485L648.121 94.475V137.718M644.398 127.28V92.9839L628.762 87.7649M628.762 87.7649V139.955M35.3509 245.081H47.2638V351.697H35.3509M35.3509 245.081V351.697M15.2479 368.845L35.3509 366.609V364.372M453.047 157.103V132.499L420.286 137.718V162.322H415.075V101.931L571.431 68.38V72.8535M459.748 155.612V97.4573L510.378 86.2738V148.902M514.845 147.411V84.7826L571.431 72.8535M571.431 139.209V72.8535M574.41 139.209V63.9066L412.096 99.694V162.322M399.439 164.559V101.931L365.189 108.641V169.778M352.532 172.014V111.623L249.039 134.736V186.926M238.615 188.417V136.973L214.789 142.192L214.044 203.328M217.767 190.654V144.428L235.637 140.7L235.695 144.428M235.637 169.778L221.49 172.014V190.654M236.032 166.05L236.381 188.417M236.032 166.05L221.49 168.287V147.411L235.695 144.428M236.032 166.05L235.695 144.428M252.017 186.18V136.973L348.809 116.097V119.824M283.288 181.387L254.995 185.435V140.7L283.288 134.736V181.387ZM283.288 181.387L287.011 180.855M287.011 180.855V133.245L321.26 125.789V175.955M287.011 180.855L321.26 175.955M321.26 175.955L324.983 175.423M324.983 175.423L348.809 172.014V150.393M324.983 175.423V154.121L348.809 150.393M348.809 150.393V146.665M348.809 146.665L324.983 150.393V125.043L348.809 119.824M348.809 146.665V119.824M368.912 169.032V112.369L395.716 106.404V110.132M395.716 142.192V164.559M395.716 142.192L372.635 146.665V168.287M395.716 142.192V137.718M395.716 137.718L372.635 142.192V115.351L395.716 110.132M395.716 137.718V110.132M175.327 142.274L208.088 145.919V228.678L187.24 227.187V223.459L204.365 224.95V148.902L175.327 145.919M175.327 142.274L174.583 142.192M175.327 142.274V145.919M180.539 207.802V177.233L175.327 176.68M18.9707 160.085V195.873M18.9707 160.085L13.7588 161.525M18.9707 160.085L46.5193 163.009M-2.62143 198.11V166.05L10.036 162.553M10.036 162.553V92.9839L150.013 115.351V173.994M10.036 162.553L13.7588 161.525M150.013 173.994L175.327 176.68M150.013 173.994L146.29 173.598M175.327 176.68V145.919M175.327 176.68V177.233M146.29 173.598V117.588L13.7588 96.7118V101.931M146.29 173.598L141.078 173.045M13.7588 161.525V101.931M13.7588 101.931L46.5193 107.15V163.009M46.5193 163.009L50.9866 163.483M50.9866 163.483V108.641L79.2797 113.114V166.486M50.9866 163.483L79.2797 166.486M79.2797 166.486L83.7471 166.96M83.7471 166.96L83.0025 113.86L110.551 117.588V169.805M83.7471 166.96L110.551 169.805M110.551 169.805L115.018 170.279M115.018 170.279L114.274 118.333L141.078 122.061V173.045M115.018 170.279L141.078 173.045M-109.838 186.926L-81.5444 189.163V82.5459L-108.348 78.818M-37.6156 72.8535L182.028 108.641M182.773 104.167L-34.6373 66.8889M182.028 101.931L653.332 -35.2544M187.24 344.242L214.838 342.75M-139.62 345.733L-116.539 344.981V235.135L-126.962 234.643M470.916 248.063V225.696L254.25 240.607V256.602L470.916 248.063ZM482.829 224.205V248.063L573.665 253.282V230.169L482.829 224.205ZM453.047 128.026L420.286 132.499V105.659L453.047 99.694V128.026ZM-76.3325 84.037L-48.0394 88.5105V191.399L-76.3325 189.163V84.037ZM204.365 328.585V242.844L187.24 241.353V236.879L208.088 238.37V331.567H187.24V328.585H204.365ZM-48.0394 238.37V342.75L-76.3325 343.672V237.034L-48.0394 238.37ZM-112.071 235.346V344.836L-82.2889 343.866V236.753L-112.071 235.346Z" stroke="#857F7F"/>
</svg>
